<svg xmlns="http://www.w3.org/2000/svg" xmlns:xlink="http://www.w3.org/1999/xlink" width="100" height="100" viewBox="0 0 100 100">
  <defs>
    <clipPath id="clip-path">
      <rect id="Rectangle_581" data-name="Rectangle 581" width="100" height="100" transform="translate(314 141)" fill="#fff"/>
    </clipPath>
  </defs>
  <g id="ic_04" transform="translate(19 -18047)">
    <g id="Group_453" data-name="Group 453" transform="translate(-333 17906)" clip-path="url(#clip-path)">
      <path id="Path_2247" data-name="Path 2247" d="M364.005,240.99a49.719,49.719,0,1,1,19.147-3.781A50,50,0,0,1,364.005,240.99Zm0-94.334a44.221,44.221,0,1,0,16.974,3.355A44.327,44.327,0,0,0,364.005,146.656Z" fill="#38b245"/>
      <path id="Path_2248" data-name="Path 2248" d="M353.287,202.427l-.991-.248c-.287-.06-.614-.089-.9-.169h-1.258l-20.922,20.912a2.052,2.052,0,0,0,2.9,2.9l22.922-22.991C354.466,202.7,353.871,202.545,353.287,202.427Z" fill="#38b245"/>
      <path id="Path_2249" data-name="Path 2249" d="M398.814,156.176a2.039,2.039,0,0,0-2.892,0l-23.675,23.675a17.189,17.189,0,0,1,2.446-.426,6.37,6.37,0,0,1,3.319.446l20.8-20.8a2.039,2.039,0,0,0,0-2.892Z" fill="#38b245"/>
      <path id="Path_2250" data-name="Path 2250" d="M366.633,176.652l12.743,7.181-2.729,18.313-14.279,3.193-12.743-7.172,2.728-18.339Zm0-3.652a4.107,4.107,0,0,0-.8.088L351.55,176.3a3.655,3.655,0,0,0-2.808,3.035l-2.7,18.3a3.652,3.652,0,0,0,1.819,3.714l12.744,7.18a3.689,3.689,0,0,0,1.766.468,3.554,3.554,0,0,0,.8-.088l14.28-3.2a3.655,3.655,0,0,0,2.817-3.026l2.694-18.313a3.661,3.661,0,0,0-1.82-3.714L368.4,173.485a3.622,3.622,0,0,0-1.766-.476Z" fill="#38b245"/>
      <path id="Path_2251" data-name="Path 2251" d="M362.975,207h-.219a1.482,1.482,0,0,1-1.24-1.673l2.411-16.293-11.181-6.291a1.468,1.468,0,0,1,1.45-2.552l12.055,6.778a1.461,1.461,0,0,1,.733,1.49l-2.559,17.3a1.466,1.466,0,0,1-1.45,1.237Z" fill="#38b245"/>
      <path id="Path_2252" data-name="Path 2252" d="M365.421,189a1.4,1.4,0,0,1-.949-.379,1.49,1.49,0,0,1-.464-.937,1.522,1.522,0,0,1,.259-1.019,1.416,1.416,0,0,1,.849-.58l13.144-3.048a1.388,1.388,0,0,1,1.076.192,1.479,1.479,0,0,1,.629.923,1.523,1.523,0,0,1-.185,1.114,1.432,1.432,0,0,1-.892.652l-13.119,3.047A1.274,1.274,0,0,1,365.421,189Z" fill="#38b245"/>
    </g>
  </g>
</svg>
