<svg xmlns="http://www.w3.org/2000/svg" xmlns:xlink="http://www.w3.org/1999/xlink" width="87" height="87" viewBox="0 0 87 87">
  <defs>
    <clipPath id="clip-path">
      <rect id="Rectangle_583" data-name="Rectangle 583" width="87" height="87" transform="translate(127 341)" fill="#fff"/>
    </clipPath>
  </defs>
  <g id="ic_03" transform="translate(206 -18247)">
    <g id="Group_455" data-name="Group 455" transform="translate(-333 17906)" clip-path="url(#clip-path)">
      <path id="Path_2258" data-name="Path 2258" d="M186.741,362.809c-3.463-.555-10.345.01-13.6.787a19.932,19.932,0,0,0-1.2-4.961,15.088,15.088,0,0,0,15.716-13.046,2.756,2.756,0,0,0-1.433-2.8,15.1,15.1,0,0,0-20.953,7.28,43.027,43.027,0,0,0-8.648-4.921,2.758,2.758,0,1,0-2.257,5.033c8.567,3.842,12.339,7.6,13.215,13.419a45.753,45.753,0,0,0-6.741-.98c-15.168-.95-25.745,8.749-27.88,21.172-.847,4.737-.934,20.994,11,35.316,4.129,4.9,8.379,8.9,14.8,8.9,3.954,0,7.453-1.379,11.748-1.379,7.811,0,15.988,3.484,22.479-3.161,9.584-9.812,15.092-20.887,15.383-34.876A25.4,25.4,0,0,0,186.741,362.809Zm-5.058-15.936a9.574,9.574,0,0,1-11.568,5.913A9.574,9.574,0,0,1,181.683,346.873Zm7.358,72.733c-2.809,2.876-6.13,2.65-11.759,2-6.34-.728-8.357-.7-13.87.294-5.939,1.074-8.644,1.475-15.227-6.341A42.236,42.236,0,0,1,139.894,400a39.761,39.761,0,0,1-1.5-15.29,19.271,19.271,0,0,1,6.447-11.665c4.189-3.707,9.306-5.318,15.639-4.921,6.346.422,7.959,2.15,13.321.991,3.047-.781,9.678-1.428,12.1-.851,5,1.19,9.294,3.216,12.537,7.176a19.525,19.525,0,0,1,4.415,13.049C202.6,400.779,197.839,410.6,189.041,419.606Z" fill="#38b245"/>
    </g>
  </g>
</svg>
