<svg xmlns="http://www.w3.org/2000/svg" width="500.794" height="168" viewBox="0 0 500.794 168">
  <g id="img_rprt_i" transform="translate(0 -591)">
    <rect id="Rectangle_2106" data-name="Rectangle 2106" width="342" height="168" transform="translate(0 591)" fill="#d6f2ee"/>
    <g id="Group_3791" data-name="Group 3791" transform="translate(-7790.399 16309)">
      <path id="Path_68004" data-name="Path 68004" d="M176.116,168H0V0H70.722A27.971,27.971,0,0,1,78.6,8.984c3.567,6.6,4.031,14.391,6.325,21.533C90.27,47.151,104.95,58.9,119.669,68.312s30.666,17.9,41.35,31.718c9.656,12.492,14.112,28.375,15.28,44.121A162.443,162.443,0,0,1,176.116,168" transform="translate(8098 -15718)" fill="#d6f2ee"/>
      <path id="Path_68006" data-name="Path 68006" d="M1797.43,168h-8.177a162.448,162.448,0,0,0,.183-23.849c-1.168-15.746-5.624-31.629-15.28-44.121-10.684-13.822-26.63-22.308-41.35-31.718s-29.4-21.161-34.74-37.795c-2.294-7.143-2.758-14.934-6.325-21.533A27.971,27.971,0,0,0,1683.86,0H1695.9a26.471,26.471,0,0,1,4.274,5.8c3.567,6.6,4.031,14.391,6.325,21.534,5.341,16.633,20.021,28.384,34.74,37.794s30.666,17.9,41.35,31.718c9.656,12.492,14.112,28.375,15.28,44.121A170.15,170.15,0,0,1,1797.43,168" transform="translate(6484.862 -15718)" fill="#def5f1"/>
      <g id="Group_3792" data-name="Group 3792" transform="translate(-10.849 -22.88)">
        <path id="Path_68045" data-name="Path 68045" d="M316.183,770.745a2.479,2.479,0,0,0,1.178,2.707,4.953,4.953,0,0,0,3.075.55,10.655,10.655,0,0,0,8.172-5.345,6.991,6.991,0,0,0,6.793.334,7.661,7.661,0,0,0,3.719-6.094,6.088,6.088,0,0,0,7.079,3.785c2.846-.762,5.038-3.669,4.464-6.559a6.465,6.465,0,0,0,3.64,1.26,4.443,4.443,0,0,0,3.457-1.538,5.105,5.105,0,0,0,.866-4.027,16.119,16.119,0,0,0-.939-4.258A4.29,4.29,0,0,0,363.807,747a7.017,7.017,0,0,0-2.677-3.974,28.066,28.066,0,0,1-3.452-3.285,3.233,3.233,0,0,0,4.19-1.66,5.537,5.537,0,0,0-.392-4.85c-1.775-3.368-5.723-5.555-9.437-4.718a4.381,4.381,0,0,0,3.66-4.821,6.11,6.11,0,0,0-4.211-4.82,9.613,9.613,0,0,0-6.389-.1,8.738,8.738,0,0,0-.625-10.669c-2.6-2.843-7.768-4.129-11.082-2.16a5.418,5.418,0,0,0-.942-6.016,8.284,8.284,0,0,0-5.813-2.484,19.051,19.051,0,0,0-6.554.751,7.808,7.808,0,0,0-14.215-.549,16.369,16.369,0,0,0-5.923-2.369c-2.186-.33-4.672.339-5.878,2.192-1.134,1.742-.886,4.016-.474,6.054a10.5,10.5,0,0,0-5.926-1.273,6.974,6.974,0,0,0-5.376,3.4,4.94,4.94,0,0,0,1.006,6.014c-2.076-.663-4.523-.116-6.573.621a6.534,6.534,0,0,0-4.251,4.591,4.869,4.869,0,0,0,2.652,5.41c-2.649-1.1-5.958.237-7.766,2.463a6.9,6.9,0,0,0-.331,8.02,3.432,3.432,0,0,0-4.409,1.307,3.709,3.709,0,0,0,.727,4.753c-2.993.543-5.012,3.63-5.042,6.672a6.821,6.821,0,0,0,5.3,6.543,10.854,10.854,0,0,0-3.02,2.435,4.52,4.52,0,0,0-.936,4.051,4.815,4.815,0,0,0,1.837,2.3,8.6,8.6,0,0,0,7.775,1.135,6.936,6.936,0,0,0,3.374,6.813,7.011,7.011,0,0,0,7.631-.506A4.913,4.913,0,1,0,290,768c1.271,1.469,3.909.719,5.215-.721s1.691-3.465,2.022-5.38a8.542,8.542,0,0,0,2.125,7.862c2.1,2.009,5.877,2.284,7.824.122a4.664,4.664,0,0,0,4,2.634c1.71.222,3.993-.365,4.994-1.769" transform="translate(7850.543 -16382.213)" fill="#ad5317"/>
        <path id="Path_68046" data-name="Path 68046" d="M775.56,1374.659a6.728,6.728,0,0,0-3.056,10.9,6.21,6.21,0,0,0-2.381,6.468,5.89,5.89,0,0,0,5.091,4.351c-1.824,2.25-.644,6.229,1.733,7.883s5.684,1.49,8.274.194a20.638,20.638,0,0,0,16.589,3.351c.64,3.013,3.8,5.506,6.856,5.9a7.483,7.483,0,0,0,6.307-12.643c2.338-1.646,3.263-4.551,3.264-7.41a9.116,9.116,0,0,0-3.8-7.327c2.305-2.822,2.068-7.4.087-10.454s-5.308-5-8.73-6.258c-10.211-3.739-19.843,1.857-30.237,5.053" transform="translate(7367.756 -17019.158)" fill="#8e3f13"/>
        <path id="Path_68047" data-name="Path 68047" d="M1016.172,1464.646h0a17.267,17.267,0,0,0,6.484,12.891,23.727,23.727,0,0,0,11.058,4.786,33.338,33.338,0,0,1-.527-7.445c-1.8.525-3.629-.131-5.3-.973a25.788,25.788,0,0,1-10.31-9.449,16.05,16.05,0,0,0-1.3-1.6c0,.027-.007.053-.01.079a5.4,5.4,0,0,1-.1,1.713" transform="translate(7135.435 -17108.316)" fill="#d19171"/>
        <path id="Path_68048" data-name="Path 68048" d="M907.229,1132.015a2.094,2.094,0,0,0-1.153-1.257,1.284,1.284,0,0,0-1.282.485,2.81,2.81,0,0,0-.52,1.337c-.447,2.688.654,5.4,2.1,7.714a2.7,2.7,0,0,0,1.013,1.075c.45.218,1.324.12,1.544-.327.958,2.284,3.512,7.424,8.926,10.009a9.211,9.211,0,0,0,5.9,1.149c2.975-.584,4.718-2.922,6.034-4.688a21.154,21.154,0,0,0,3.759-9.694,29.675,29.675,0,0,0-.33-11.393c-1.683-.147-3.558-.948-4.208-2.507a4.757,4.757,0,0,1,.716-4.768,4.714,4.714,0,0,1-8.3-.639,3.114,3.114,0,0,1-1.7,3.336,3.146,3.146,0,0,1-3.7-.716,4.874,4.874,0,0,1-.052,2.762,3.215,3.215,0,0,1-1.717,2.135,2.389,2.389,0,0,1-2.626-.43,8.858,8.858,0,0,1,.289,2.611,3.048,3.048,0,0,1-.972,2.384,1.866,1.866,0,0,1-2.425.006,2.584,2.584,0,0,1,.151.934.924.924,0,0,1-.588.728c-.315.093-.74.062-.864-.242" transform="translate(7241.115 -16783.4)" fill="#e8a682"/>
        <path id="Path_68049" data-name="Path 68049" d="M1313.818,1282.71a6.525,6.525,0,0,0-3.811-2.013,6.2,6.2,0,0,0-1.215-.059.2.2,0,0,1,0-.408,6.88,6.88,0,0,1,4.336,1.321,6.721,6.721,0,0,1,.978.871.2.2,0,0,1-.288.288" transform="translate(6859.517 -16935.99)" fill="#8e3f13"/>
        <path id="Path_68050" data-name="Path 68050" d="M1107.043,1246.721a4.268,4.268,0,0,0-3.707-.887,3.935,3.935,0,0,0-1.047.4.2.2,0,0,1-.206-.352,4.7,4.7,0,0,1,4.22-.123,4.355,4.355,0,0,1,1.027.67.2.2,0,0,1-.288.288" transform="translate(7054.464 -16903.057)" fill="#8e3f13"/>
        <path id="Path_68051" data-name="Path 68051" d="M1253.627,1386.978l.657,1.436.321.7a5,5,0,0,1,.288.7,1.1,1.1,0,0,1-.316,1.186,1.48,1.48,0,0,1-1.067.333,3.482,3.482,0,0,1-1.479-.608c-.223-.137-.018-.49.206-.352a3.639,3.639,0,0,0,1.124.528,1.314,1.314,0,0,0,.246.029,1.049,1.049,0,0,0,.219-.017,1.083,1.083,0,0,0,.423-.173.857.857,0,0,0,.149-.136.411.411,0,0,0,.046-.063q.015-.023.028-.047c0-.007.031-.063.021-.04a.8.8,0,0,0,.005-.532,4.374,4.374,0,0,0-.254-.615l-.3-.657-.671-1.466a.21.21,0,0,1,.073-.279.206.206,0,0,1,.279.073" transform="translate(6912.973 -17036.629)" fill="#8e3f13"/>
        <path id="Path_68052" data-name="Path 68052" d="M1176.675,1497.871a6.576,6.576,0,0,0,6.668,2.409,3.524,3.524,0,0,1-2.7,2.294,3.639,3.639,0,0,1-3.168-1.113,3.882,3.882,0,0,1-.8-3.591" transform="translate(6984.163 -17141.359)" fill="#fff"/>
        <path id="Path_68053" data-name="Path 68053" d="M930.7,1386.878a2.3,2.3,0,0,1,1.674,1.053,3.836,3.836,0,0,1,.579,2.2,13.481,13.481,0,0,1-.1,1.426.171.171,0,0,1-.166.166.167.167,0,0,1-.166-.166,7.68,7.68,0,0,0,.011-2.406,2.683,2.683,0,0,0-.929-1.577,1.729,1.729,0,0,0-.9-.369.17.17,0,0,1-.166-.166.168.168,0,0,1,.166-.166" transform="translate(7216.245 -17036.629)" fill="#8e3f13"/>
        <path id="Path_68054" data-name="Path 68054" d="M937.928,1405.644a2.013,2.013,0,0,1-.4-1.118,1.744,1.744,0,0,1,.065-.59,1.617,1.617,0,0,1,.3-.518c.133-.166.282-.317.416-.482a.167.167,0,0,1,.235,0,.17.17,0,0,1,0,.235c-.14.174-.3.33-.436.508a1.1,1.1,0,0,0-.237.535,1.712,1.712,0,0,0,.339,1.263.167.167,0,0,1-.06.227.17.17,0,0,1-.227-.06" transform="translate(7209.641 -17051.736)" fill="#8e3f13"/>
        <path id="Path_68055" data-name="Path 68055" d="M1311.909,1344.246c0,.951.524,1.722,1.171,1.722s1.171-.771,1.171-1.722-.524-1.723-1.171-1.723-1.171.771-1.171,1.723" transform="translate(6856.382 -16994.777)"/>
        <path id="Path_68056" data-name="Path 68056" d="M1332.664,1357.16a.325.325,0,1,0,.325-.325.325.325,0,0,0-.325.325" transform="translate(6836.799 -17008.279)" fill="#fff"/>
        <path id="Path_68057" data-name="Path 68057" d="M1129.143,1313.721c0,.951.524,1.722,1.171,1.722s1.171-.771,1.171-1.722-.524-1.722-1.171-1.722-1.171.771-1.171,1.722" transform="translate(7028.837 -16965.975)"/>
        <path id="Path_68058" data-name="Path 68058" d="M1149.9,1326.635a.325.325,0,1,0,.325-.325.325.325,0,0,0-.325.325" transform="translate(7009.253 -16979.479)" fill="#fff"/>
        <path id="Path_68059" data-name="Path 68059" d="M669.355,1527.534a50.973,50.973,0,0,0,39.586,6.624c6.1-1.54,12.195-4.554,16-9.411a29.839,29.839,0,0,0-6.026-2.529,31.172,31.172,0,0,0-9.576-1.249,33.275,33.275,0,0,1-2.637-7.495q-.131-.589-.236-1.16a23.727,23.727,0,0,1-11.058-4.786,17.267,17.267,0,0,1-6.484-12.891c-.222,1.362-.648,3.012-.719,3.534q-.392,2.893-.787,5.786-.789,5.787-1.576,11.573c-.222,1.648-.114,3.649-1.246,4.625-1.263,1.09-3.309,1.8-4.8,2.543-3.056,1.526-6.8,2.478-9.653,4.3q-.4.257-.786.534" transform="translate(7462.685 -17138.307)" fill="#e8a682"/>
        <path id="Path_68060" data-name="Path 68060" d="M555.857,2898.382a152.509,152.509,0,0,0,6,20.9,159.108,159.108,0,0,0,6.8,15.96l29.816.06a57.7,57.7,0,0,0,4.139-5.389c1.345-1.976,2.58-4.019,3.734-6.108a27.612,27.612,0,0,1-7.4,5.5,16.64,16.64,0,0,1-7.182,2.083,15.613,15.613,0,0,1-6.87-1.666,33.033,33.033,0,0,1-7.2-4.433c-.8,2.269-1.495,4.44-2.095,6.492-5.486-7.747-10.937-15.554-15.365-23.952a97.487,97.487,0,0,1-4.381-9.451" transform="translate(7569.779 -18462.855)" fill="#02afa2"/>
        <path id="Path_68061" data-name="Path 68061" d="M1311.179,2555.325l38.329.078c.366-1.408.848-3.3,1.388-5.551,0,0,.716-2.979,1.249-5.413.006-.027.012-.054.018-.082a116.185,116.185,0,0,0,2.481-26.983,92.283,92.283,0,0,0-3.671-21.691q-3.349,5.921-7.05,12.011c-7.316,12.02-14.764,22.938-22.067,32.789a31.463,31.463,0,0,1-2.8,3.344c-1.154,2.09-2.388,4.133-3.734,6.109a57.893,57.893,0,0,1-4.139,5.389" transform="translate(6857.072 -18082.875)" fill="#00d4cb"/>
        <path id="Path_68062" data-name="Path 68062" d="M2030.194,2449.861c-.192,5.779-.671,10.83-1.19,14.933l1.9,1.042a35.461,35.461,0,0,0,4.18-8.639,83.819,83.819,0,0,0,3.063-13.47,103.158,103.158,0,0,0,1.311-18.448h0c-5.645-6.716-10.895-12.672-15.582-17.767q-1.222,2.229-2.494,4.485a53.723,53.723,0,0,1,7.975,18.85c1.263,6.111,1.1,11.014.833,19.014" transform="translate(6186.934 -17999.682)" fill="#00d4cb"/>
        <path id="Path_68063" data-name="Path 68063" d="M2264.256,2081.489a15.364,15.364,0,0,0,15.77-1.131c2.461-1.7,3.412-3.987,5-6.424q5.759-8.81,10.971-17.962a344.524,344.524,0,0,0,21.513-45.105l-15.544-1.527-30.429,43.717q-1.471-1.776-2.91-3.486a103.186,103.186,0,0,1-1.311,18.448,83.789,83.789,0,0,1-3.064,13.469" transform="translate(5957.766 -17623.973)" fill="#e8a682"/>
        <path id="Path_68064" data-name="Path 68064" d="M2017.688,2536.174q3.352,1.813,6.7,3.634c.52-4.1,1-9.155,1.19-14.933.266-8,.43-12.9-.833-19.014a53.711,53.711,0,0,0-7.975-18.85l-.276.489a92.315,92.315,0,0,1,3.671,21.692,116.2,116.2,0,0,1-2.481,26.983" transform="translate(6191.546 -18074.693)" fill="#02afa2"/>
        <path id="Path_68065" data-name="Path 68065" d="M514.128,2076.976q.037.186.09.444a97.464,97.464,0,0,0,4.381,9.452c4.428,8.4,9.878,16.2,15.364,23.951.6-2.053,1.293-4.223,2.095-6.492,1.239-3.506,2.738-7.247,4.559-11.146a123.746,123.746,0,0,1,9.577-16.9l-8.5-20.609,15.256,14.234c5.523-5.32,11.156-11.019,16.838-17.114q7.277-7.8,13.7-15.385c-1.551-1.5-2.954-2.808-4.191-3.906a39.137,39.137,0,0,0-7.089-5.173h0c-3.8,4.857-9.9,7.871-16,9.411a50.974,50.974,0,0,1-39.586-6.624,21.12,21.12,0,0,0-6.225,7.349c-1.881,3.558-2.054,7.282-2.385,11.256a85.424,85.424,0,0,0,2.117,27.251" transform="translate(7611.419 -17641.895)" fill="#00d4cb"/>
        <path id="Path_68066" data-name="Path 68066" d="M942.972,1873.717a33.03,33.03,0,0,0,7.2,4.434,15.611,15.611,0,0,0,6.87,1.666,16.642,16.642,0,0,0,7.182-2.082,28.831,28.831,0,0,0,10.2-8.848c7.3-9.851,14.751-20.77,22.067-32.789q3.7-6.085,7.05-12.011l.276-.489q1.272-2.256,2.495-4.485,1.3-2.374,2.547-4.714c13.046-3.765,22.46-6.959,23.943-8.115a3.939,3.939,0,0,0,1.322-1.791,2.251,2.251,0,0,0-.116-2.148,4.641,4.641,0,0,0,2.087-2.088,1.764,1.764,0,0,0-1.073-2.346,2.581,2.581,0,0,0,1.655-1.278,1.73,1.73,0,0,0-.3-1.986,1.469,1.469,0,0,0-1.879.081c-.04.05-.08.1-.122.146a.911.911,0,0,1,.122-.146,4.341,4.341,0,0,0,.915-2.182,1.634,1.634,0,0,0-.147-1.032,1.581,1.581,0,0,0-1.672-.529c-7.079,1.342-13.977,4-21.06,5.536-1.12.242-2.443.419-3.274-.37-.894-.849-.69-2.3-.418-3.5q.568-2.511,1.136-5.021a4.927,4.927,0,0,0,.138-2.4c-.22-.781-1.2-1.655-1.833-1.142a27.866,27.866,0,0,0-8.977,13.454c-.235.779-.392,1.582-.632,2.358a12.429,12.429,0,0,1-.756,2.72q-1.723,2.079-3.512,4.183-6.428,7.563-13.7,15.386c-5.682,6.094-11.315,11.793-16.838,17.113q-3.407,3.284-6.755,6.375a123.759,123.759,0,0,0-9.577,16.9c-1.822,3.9-3.321,7.639-4.559,11.145" transform="translate(7204.505 -17411.281)" fill="#e8a682"/>
        <path id="Path_68067" data-name="Path 68067" d="M1042.849,2513.013l8.5,20.609q3.346-3.092,6.755-6.375l-15.256-14.234" transform="translate(7110.263 -18099.229)" fill="#02afa2"/>
        <path id="Path_68068" data-name="Path 68068" d="M2359.9,1971.938a43.72,43.72,0,0,1-9.312,4.328q-1.382.454-2.794.815a.1.1,0,0,1-.048-.2,43.359,43.359,0,0,0,9.558-3.693q1.273-.674,2.5-1.431c.112-.069.209.11.1.179" transform="translate(5879.057 -17588.496)" fill="#936954"/>
        <path id="Path_68069" data-name="Path 68069" d="M2372.095,2033.7a43.7,43.7,0,0,1-9.176,4.609q-1.369.5-2.768.9a.1.1,0,0,1-.054-.2,43.352,43.352,0,0,0,9.441-3.983q1.252-.712,2.455-1.507c.11-.072.212.1.1.176" transform="translate(5867.4 -17646.771)" fill="#936954"/>
        <path id="Path_68070" data-name="Path 68070" d="M2353.694,2109.956a43.687,43.687,0,0,1-9.176,4.609q-1.369.5-2.768.9a.1.1,0,0,1-.055-.2,43.432,43.432,0,0,0,9.441-3.983q1.251-.712,2.454-1.507c.11-.073.212.1.1.176" transform="translate(5884.763 -17718.73)" fill="#936954"/>
        <path id="Path_68071" data-name="Path 68071" d="M940.689,1480.4a1.58,1.58,0,1,1-1.58-1.58,1.58,1.58,0,0,1,1.58,1.58" transform="translate(7209.641 -17123.381)" fill="#00d4cb"/>
        <path id="Path_68072" data-name="Path 68072" d="M2708.839,1635.407h-50.82a3.069,3.069,0,0,0-3.07,3.07v69.1a3.07,3.07,0,0,0,3.07,3.07h50.82a3.07,3.07,0,0,0,3.07-3.07v-69.1a3.07,3.07,0,0,0-3.07-3.07" transform="translate(5589.114 -17271.139)" fill="#fff"/>
        <path id="Path_68073" data-name="Path 68073" d="M2691.793,1617.342h-50.82a4.093,4.093,0,0,0-4.089,4.089v69.1a4.093,4.093,0,0,0,4.089,4.089h50.82a4.093,4.093,0,0,0,4.089-4.089v-69.1a4.093,4.093,0,0,0-4.089-4.089m3.07,73.19a3.069,3.069,0,0,1-3.07,3.07h-50.82a3.07,3.07,0,0,1-3.07-3.07v-69.1a3.07,3.07,0,0,1,3.07-3.07h50.82a3.069,3.069,0,0,1,3.07,3.07Z" transform="translate(5606.16 -17254.092)" fill="#02afa2"/>
        <path id="Path_68075" data-name="Path 68075" d="M2789.382,2174.083h-46.16a.446.446,0,0,1-.445-.444v-.342a.446.446,0,0,1,.445-.444h46.16a.446.446,0,0,1,.444.444v.342a.446.446,0,0,1-.444.444" transform="translate(5506.242 -17778.262)" fill="#02afa2"/>
        <path id="Path_68076" data-name="Path 68076" d="M2789.382,2249.744h-46.16a.446.446,0,0,1-.445-.445v-.342a.446.446,0,0,1,.445-.445h46.16a.446.446,0,0,1,.444.445v.342a.446.446,0,0,1-.444.445" transform="translate(5506.242 -17849.652)" fill="#02afa2"/>
        <path id="Path_68077" data-name="Path 68077" d="M2789.382,2325.4h-46.16a.445.445,0,0,1-.445-.444v-.342a.446.446,0,0,1,.445-.444h46.16a.445.445,0,0,1,.444.444v.342a.445.445,0,0,1-.444.444" transform="translate(5506.242 -17921.045)" fill="#02afa2"/>
        <path id="Path_68078" data-name="Path 68078" d="M2789.382,2401.065h-46.16a.446.446,0,0,1-.445-.445v-.342a.446.446,0,0,1,.445-.444h46.16a.446.446,0,0,1,.444.444v.342a.446.446,0,0,1-.444.445" transform="translate(5506.242 -17992.438)" fill="#02afa2"/>
        <path id="Path_68079" data-name="Path 68079" d="M2789.382,2476.727h-46.16a.446.446,0,0,1-.445-.445v-.341a.446.446,0,0,1,.445-.445h46.16a.446.446,0,0,1,.444.445v.341a.446.446,0,0,1-.444.445" transform="translate(5506.242 -18063.83)" fill="#02afa2"/>
        <path id="Path_68080" data-name="Path 68080" d="M2789.382,2552.387h-46.16a.446.446,0,0,1-.445-.445v-.342a.446.446,0,0,1,.445-.444h46.16a.446.446,0,0,1,.444.444v.342a.446.446,0,0,1-.444.445" transform="translate(5506.242 -18135.221)" fill="#02afa2"/>
        <path id="Path_68081" data-name="Path 68081" d="M2789.382,2628.047h-46.16a.446.446,0,0,1-.445-.444v-.342a.446.446,0,0,1,.445-.444h46.16a.446.446,0,0,1,.444.444v.342a.446.446,0,0,1-.444.444" transform="translate(5506.242 -18206.611)" fill="#02afa2"/>
        <path id="Path_68082" data-name="Path 68082" d="M2789.382,2703.708h-46.16a.445.445,0,0,1-.445-.444v-.342a.445.445,0,0,1,.445-.444h46.16a.445.445,0,0,1,.444.444v.342a.445.445,0,0,1-.444.444" transform="translate(5506.242 -18278.006)" fill="#02afa2"/>
        <path id="Path_68083" data-name="Path 68083" d="M2789.382,2779.369h-46.16a.446.446,0,0,1-.445-.445v-.342a.446.446,0,0,1,.445-.445h46.16a.446.446,0,0,1,.444.445v.342a.446.446,0,0,1-.444.445" transform="translate(5506.242 -18349.396)" fill="#02afa2"/>
        <path id="Path_68084" data-name="Path 68084" d="M2789.382,2855.029h-46.16a.445.445,0,0,1-.445-.444v-.342a.446.446,0,0,1,.445-.444h46.16a.445.445,0,0,1,.444.444v.342a.445.445,0,0,1-.444.444" transform="translate(5506.242 -18420.787)" fill="#02afa2"/>
        <path id="Path_68085" data-name="Path 68085" d="M2994.322,1587.4a2.206,2.206,0,0,1,.923.2,2.729,2.729,0,0,0,2.2-.005,2.194,2.194,0,0,1,1.871.036,2.7,2.7,0,0,0,2.363,0,2.184,2.184,0,0,1,2.168.129,2.624,2.624,0,0,0,2.4.15,1.953,1.953,0,0,1,.792-.164c1.384,0,2.506,1.348,2.506,4.245s-1.122,6.244-2.506,6.244c-.838,0-1.579-1.227-2.034-2.838-.486,1.979-1.357,3.552-2.352,3.552-.872,0-1.65-1.208-2.155-2.839-.505,1.631-1.283,2.839-2.155,2.839-.822,0-1.56-1.072-2.065-2.561-.5,1.288-1.192,2.19-1.958,2.19-1.523,0-2.758-3.567-2.758-6.653s1.235-4.522,2.758-4.522" transform="translate(5271.491 -17225.838)" fill="#e8a682"/>
        <path id="Path_68086" data-name="Path 68086" d="M3226.662,1604.09l-.134,5.276q-.02.742-.038,1.483c0,.11-.217.117-.214.006l.134-5.276q.019-.741.038-1.483c0-.11.217-.118.214-.006" transform="translate(5050.022 -17241.512)" fill="#936954"/>
        <path id="Path_68087" data-name="Path 68087" d="M3147.844,1598.8q-.048,3.019-.1,6.038-.015.849-.028,1.7c0,.126-.216.133-.214.007q.049-3.019.1-6.038.014-.848.028-1.7c0-.126.216-.134.214-.007" transform="translate(5124.349 -17236.514)" fill="#936954"/>
        <path id="Path_68088" data-name="Path 68088" d="M3071.324,1596.754q-.038,3.234-.076,6.469-.011.909-.021,1.818c0,.135-.216.142-.215.007q.038-3.234.076-6.469.011-.909.021-1.818c0-.135.216-.142.215-.007" transform="translate(5196.526 -17234.57)" fill="#936954"/>
      </g>
    </g>
    <text id="Report" transform="translate(452 672)" fill="#02afa2" font-size="12" font-family="RobotoCondensed-Regular, Roboto" letter-spacing="0.02em"><tspan x="0" y="0">REPORT</tspan></text>
  </g>
</svg>
