<svg xmlns="http://www.w3.org/2000/svg" xmlns:xlink="http://www.w3.org/1999/xlink" width="328.811" height="308.317" viewBox="0 0 328.811 308.317">
  <defs>
    <clipPath id="clip-path">
      <rect id="Rectangle_2714" data-name="Rectangle 2714" width="320" height="308.317" transform="translate(40)" fill="#fff"/>
    </clipPath>
  </defs>
  <g id="or_icon_03" transform="translate(-1190.25 -1327.183)">
    <g id="Group_5094" data-name="Group 5094" transform="translate(10597.302 -8439.415)">
      <path id="Path_1352" data-name="Path 1352" d="M235.359,73.368C142.628,41.574,109.951,45.99,71.975,98.979l-.1.18c-9.412,17.01-16.236,29.345-14.031,74,1.45,29.371,64.47,163.383,117.459,176.631S318.375,304.754,347.519,223.5,328.09,105.161,235.359,73.368Z" transform="translate(-9434.504 9721.539)" fill="none" stroke="#f6d988" stroke-width="1"/>
      <path id="Path_1353" data-name="Path 1353" d="M222.128,90.922C136.292,61.493,106.046,65.58,70.894,114.63l-.092.165c-8.712,15.746-15.029,27.162-12.987,68.5,1.343,27.187,59.675,151.234,108.725,163.5s132.432-41.692,159.409-116.9S307.963,120.352,222.128,90.922Z" transform="translate(-9434.505 9724.681)" fill="#feefc5"/>
      <path id="Path_1354" data-name="Path 1354" d="M83.613,277.629a1.7,1.7,0,1,0-2.095-1.647A1.912,1.912,0,0,0,83.613,277.629Z" transform="translate(-9430.53 9757.988)" fill="#bf8d00"/>
      <path id="Path_1355" data-name="Path 1355" d="M83.613,242.23a1.7,1.7,0,1,0-2.095-1.647A1.912,1.912,0,0,0,83.613,242.23Z" transform="translate(-9430.53 9752.149)" fill="#bf8d00"/>
      <path id="Path_1356" data-name="Path 1356" d="M96,286.5a1.7,1.7,0,1,0-2.095-1.647A1.912,1.912,0,0,0,96,286.5Z" transform="translate(-9428.488 9759.451)" fill="#bf8d00"/>
      <path id="Path_1357" data-name="Path 1357" d="M96,277.629a1.7,1.7,0,1,0-2.095-1.647A1.912,1.912,0,0,0,96,277.629Z" transform="translate(-9428.488 9757.988)" fill="#bf8d00"/>
      <path id="Path_1358" data-name="Path 1358" d="M96,259.941a1.7,1.7,0,1,0-2.095-1.647A1.912,1.912,0,0,0,96,259.941Z" transform="translate(-9428.488 9755.07)" fill="#bf8d00"/>
      <path id="Path_1359" data-name="Path 1359" d="M96,233.386a1.7,1.7,0,1,0-2.095-1.647A1.912,1.912,0,0,0,96,233.386Z" transform="translate(-9428.488 9750.69)" fill="#bf8d00"/>
      <path id="Path_1360" data-name="Path 1360" d="M96,224.541a1.7,1.7,0,1,0-2.095-1.647A1.912,1.912,0,0,0,96,224.541Z" transform="translate(-9428.488 9749.231)" fill="#bf8d00"/>
      <path id="Path_1361" data-name="Path 1361" d="M108.36,277.629a1.7,1.7,0,1,0-2.095-1.647A1.912,1.912,0,0,0,108.36,277.629Z" transform="translate(-9426.449 9757.988)" fill="#bf8d00"/>
      <path id="Path_1362" data-name="Path 1362" d="M108.36,268.785a1.7,1.7,0,1,0-2.095-1.648A1.913,1.913,0,0,0,108.36,268.785Z" transform="translate(-9426.449 9756.529)" fill="#bf8d00"/>
      <path id="Path_1363" data-name="Path 1363" d="M108.36,251.1a1.7,1.7,0,1,0-2.095-1.647A1.912,1.912,0,0,0,108.36,251.1Z" transform="translate(-9426.449 9753.612)" fill="#bf8d00"/>
      <path id="Path_1364" data-name="Path 1364" d="M108.36,242.23a1.7,1.7,0,1,0-2.095-1.647A1.912,1.912,0,0,0,108.36,242.23Z" transform="translate(-9426.449 9752.149)" fill="#bf8d00"/>
      <path id="Path_1365" data-name="Path 1365" d="M108.36,224.541a1.7,1.7,0,1,0-2.095-1.647A1.912,1.912,0,0,0,108.36,224.541Z" transform="translate(-9426.449 9749.231)" fill="#bf8d00"/>
      <path id="Path_1366" data-name="Path 1366" d="M120.747,286.5a1.7,1.7,0,1,0-2.095-1.647A1.912,1.912,0,0,0,120.747,286.5Z" transform="translate(-9424.405 9759.451)" fill="#bf8d00"/>
      <path id="Path_1367" data-name="Path 1367" d="M120.747,277.629a1.7,1.7,0,1,0-2.095-1.647A1.912,1.912,0,0,0,120.747,277.629Z" transform="translate(-9424.405 9757.988)" fill="#bf8d00"/>
      <path id="Path_1368" data-name="Path 1368" d="M120.747,268.785a1.7,1.7,0,1,0-2.095-1.648A1.913,1.913,0,0,0,120.747,268.785Z" transform="translate(-9424.405 9756.529)" fill="#bf8d00"/>
      <path id="Path_1369" data-name="Path 1369" d="M120.747,259.941a1.7,1.7,0,1,0-2.095-1.647A1.912,1.912,0,0,0,120.747,259.941Z" transform="translate(-9424.405 9755.07)" fill="#bf8d00"/>
      <path id="Path_1370" data-name="Path 1370" d="M120.747,242.23a1.7,1.7,0,1,0-2.095-1.647A1.912,1.912,0,0,0,120.747,242.23Z" transform="translate(-9424.405 9752.149)" fill="#bf8d00"/>
      <path id="Path_1371" data-name="Path 1371" d="M120.747,233.386a1.7,1.7,0,1,0-2.095-1.647A1.912,1.912,0,0,0,120.747,233.386Z" transform="translate(-9424.405 9750.69)" fill="#bf8d00"/>
      <path id="Path_1372" data-name="Path 1372" d="M120.747,215.7a1.7,1.7,0,1,0-2.095-1.647A1.912,1.912,0,0,0,120.747,215.7Z" transform="translate(-9424.405 9747.771)" fill="#bf8d00"/>
      <path id="Path_1373" data-name="Path 1373" d="M133.134,277.629a1.7,1.7,0,1,0-2.095-1.647A1.912,1.912,0,0,0,133.134,277.629Z" transform="translate(-9422.362 9757.988)" fill="#bf8d00"/>
      <path id="Path_1374" data-name="Path 1374" d="M133.134,259.941a1.7,1.7,0,1,0-2.095-1.647A1.912,1.912,0,0,0,133.134,259.941Z" transform="translate(-9422.362 9755.07)" fill="#bf8d00"/>
      <path id="Path_1375" data-name="Path 1375" d="M133.134,242.23a1.7,1.7,0,1,0-2.095-1.647A1.912,1.912,0,0,0,133.134,242.23Z" transform="translate(-9422.362 9752.149)" fill="#bf8d00"/>
    </g>
    <g id="Group_5056" data-name="Group 5056" transform="translate(517.918 1294.035)">
      <g id="Group_5055" data-name="Group 5055" transform="translate(632.332 33.148)" clip-path="url(#clip-path)">
        <path id="Path_7005" data-name="Path 7005" d="M864.978,132.917a92.541,92.541,0,0,1,.584,13.958c-1.652,48.265-39.749,83.459-86.132,88.364a92.882,92.882,0,0,1-20.544-.049c-6.77-.791-24.963-2.959-41.421-16.815-4.627-3.9-28.81-25.219-26.477-54.328.914-11.4,6.029-25.7,14.266-32.554a52.629,52.629,0,0,1,5.258-4.054c5.352-3.476,11.37-6.08,16.041-10.454,7.131-6.681,10.239-16.649,11.878-26.332S740.553,71,743.737,61.722c11.41-33.254,59.129-37.393,80.813-12.883,5.574,6.3,6.511,12.065,9.4,19.431,2.787,7.106,8.244,12.83,12.764,18.822a94.825,94.825,0,0,1,18.267,45.825Z" transform="translate(-584.766 -33.148)" fill="#1f2935"/>
        <path id="Path_7006" data-name="Path 7006" d="M714.989,174.88c6.656,7.885,15.243,12.271,23.77,17.627,7.738,4.861,18.828,2.43,26.963-.863,6.649-2.691,5.943-5.269,11.653-7.2,11.606-3.922,17.906,4.694,26.283,1.423,5.467-2.134,8.31-10.075,13.772-25.87,4.8-13.879,7.446-21.534,8.007-32.985.64-13.1-1.86-22.78-4.165-31.69,0,0-3.037-11.752-12.19-28.168a20.557,20.557,0,0,0-3.9-4.887c-.662-.661-1.159-1.36-2.1-1.542a9.329,9.329,0,0,0-3.449.26,61.551,61.551,0,0,1-19.067.251,184.614,184.614,0,0,1-18.782-3.7c-6.012-1.4-12.358-.616-18.3,1.089-5.976,9.589-5.876,20.306-9.1,30.786a104.492,104.492,0,0,1-14.684,30.19c-4.731,6.608-10.429,12.77-13.031,20.49-3.983,11.814.294,25.291,8.313,34.788Z" transform="translate(-573.111 -13.907)" fill="#181d24"/>
        <path id="Path_7007" data-name="Path 7007" d="M728.687,94.929a4.011,4.011,0,0,0,2.711,1.313,4.389,4.389,0,0,0,3.188-1.905,29.594,29.594,0,0,0,6.832,13.366,27.146,27.146,0,0,0,12.492,8.117,21.893,21.893,0,0,0,2.928.611,20.875,20.875,0,0,0,5.644.038c6.3-.9,10.4-4.733,12.686-6.955l.2-.194a32.145,32.145,0,0,0,8.5-14.79c-.141,1.276,1.617,2.113,2.85,1.8a5.581,5.581,0,0,0,2.872-2.41c3.095-4.258,5.545-9.212,5.76-14.49.065-1.627-.268-3.557-1.717-4.268-1.5-.735-3.3.042-4.669,1a49.951,49.951,0,0,0-.167-8.7,76.153,76.153,0,0,1-12.859-.455c-2.961-.451-6-2.689-8.549-4.254a57.068,57.068,0,0,1-16.195-14.934,36.656,36.656,0,0,0,13.388,16.38,36.955,36.955,0,0,1-17.6-14.687,27.933,27.933,0,0,1-17.861,16.892q.261,5.5.52,10.995c-.2-.228-1.985-2.189-3.7-1.721-1.621.44-2.134,2.758-2.455,4.2-1.525,6.875,2.852,12.864,5.2,15.037Z" transform="translate(-558.473 -21.212)" fill="#fca583"/>
        <path id="Path_7008" data-name="Path 7008" d="M760.405,66.437a1.2,1.2,0,0,1,1.866-.218c.725.789.567,1.918.491,2.94a8.14,8.14,0,0,1-1.955,5.006,4.7,4.7,0,0,1-3.271,1.486,4.2,4.2,0,0,0,3.714-1,7.471,7.471,0,0,0,2.3-5.437,6.781,6.781,0,0,0-.132-2.022,2.061,2.061,0,0,0-1.358-1.59c-.647-.174-1.55.081-1.657.829Z" transform="translate(-530.525 -6.798)" fill="#e77147"/>
        <path id="Path_7009" data-name="Path 7009" d="M749.151,71.133a4.08,4.08,0,0,0-1.61-2.324,4.445,4.445,0,0,0-6.446,1.335,5.185,5.185,0,0,0-.308.65l-.105.34c-.023.118-.049.232-.069.347A4.9,4.9,0,0,1,749.151,71.133Z" transform="translate(-544.287 -4.848)" fill="#e77147"/>
        <path id="Path_7010" data-name="Path 7010" d="M739.5,75.368a18.661,18.661,0,0,0,15.493-.7,8.521,8.521,0,0,1-7.969,7.376,8.819,8.819,0,0,1-8.5-7.1c.535.111.473.218.977.425Z" transform="translate(-545.984 0.609)" fill="#fff"/>
        <path id="Path_7011" data-name="Path 7011" d="M757.926,62.344a6,6,0,0,0-7.053-2.862,5.318,5.318,0,0,0-2.3,1.387,8.2,8.2,0,0,1,9.354,1.475Z" transform="translate(-537.815 -11.956)"/>
        <path id="Path_7012" data-name="Path 7012" d="M728.69,67.4a1.2,1.2,0,0,0-1.866-.218c-.725.789-.568,1.918-.491,2.94a8.14,8.14,0,0,0,1.955,5.006,4.7,4.7,0,0,0,3.271,1.486,4.2,4.2,0,0,1-3.713-1,7.463,7.463,0,0,1-2.3-5.437,6.839,6.839,0,0,1,.131-2.022,2.066,2.066,0,0,1,1.36-1.59c.647-.174,1.55.081,1.657.829Z" transform="translate(-556.555 -6.017)" fill="#e77147"/>
        <path id="Path_7013" data-name="Path 7013" d="M732.137,62.344a6,6,0,0,1,7.053-2.862,5.3,5.3,0,0,1,2.3,1.387,8.2,8.2,0,0,0-9.352,1.475Z" transform="translate(-551.179 -11.956)"/>
        <path id="Path_7014" data-name="Path 7014" d="M753.476,69.681a4.028,4.028,0,0,0,2.966-4.844,3.987,3.987,0,0,0-4.8-2.994,4.028,4.028,0,0,0-2.966,4.844A3.987,3.987,0,0,0,753.476,69.681Z" transform="translate(-537.816 -9.904)"/>
        <path id="Path_7015" data-name="Path 7015" d="M751.449,65.256a1.141,1.141,0,0,0,0-1.6,1.116,1.116,0,0,0-1.588,0,1.141,1.141,0,0,0,0,1.6A1.115,1.115,0,0,0,751.449,65.256Z" transform="translate(-537.035 -8.615)" fill="#fff"/>
        <path id="Path_7016" data-name="Path 7016" d="M750.771,62.95a.562.562,0,1,0,.562-.568A.565.565,0,0,0,750.771,62.95Z" transform="translate(-536.027 -9.377)" fill="#fff"/>
        <path id="Path_7017" data-name="Path 7017" d="M740.816,67.294a4.04,4.04,0,0,0-2.159-5.261,3.973,3.973,0,0,0-5.209,2.179,4.041,4.041,0,0,0,2.158,5.261A3.975,3.975,0,0,0,740.816,67.294Z" transform="translate(-550.361 -9.912)"/>
        <path id="Path_7018" data-name="Path 7018" d="M735.485,65.569a1.133,1.133,0,1,0-1.351-.843A1.133,1.133,0,0,0,735.485,65.569Z" transform="translate(-549.579 -8.606)" fill="#fff"/>
        <path id="Path_7019" data-name="Path 7019" d="M735.342,62.958a.562.562,0,1,0,.562-.568A.565.565,0,0,0,735.342,62.958Z" transform="translate(-548.573 -9.371)" fill="#fff"/>
        <path id="Path_7020" data-name="Path 7020" d="M738.35,85.622c-.051,1.414-.065,2.893-.031,4.431q.027,1.222.089,2.388a33.4,33.4,0,0,0,21.047-7.062l-.038-1.871a20.062,20.062,0,0,1-21.065,2.116Z" transform="translate(-546.167 7.8)" fill="#f79374"/>
        <path id="Path_7021" data-name="Path 7021" d="M735.465,97.994a26.029,26.029,0,0,0,32.827,0,21.662,21.662,0,0,1-3.682-4.689,22.049,22.049,0,0,1-2.847-8.766A33.4,33.4,0,0,1,740.716,91.6a10.416,10.416,0,0,1-5.251,6.393Z" transform="translate(-548.473 8.638)" fill="#fca583"/>
        <path id="Path_7022" data-name="Path 7022" d="M687.844,110.873c2.43,1.913,4.816,4.219,5.075,3.974.181-.17-.965-1.318-1.409-3.494-.1-.482-.337-1.994.1-2.368.591-.5,1.911.225,2.393.606a8.613,8.613,0,0,1,1.6,1.838,21.552,21.552,0,0,1,3.628,6.585,23.171,23.171,0,0,0,1.726,5.4c.932,1.719,1.661,3.536,2.6,5.249a26.374,26.374,0,0,0,3.866,5.178c.421.446.856.881,1.307,1.3a26.688,26.688,0,0,0,4.727,3.507c.241.141.482.272.724.4q.8,5.608,1.606,11.218c-4.609-1.626-8.669-4.477-12.942-7.376-3.445-2.337-7.976-2.847-9.087-6.17-.413-1.238-.17-2.054-.916-3.922a13.075,13.075,0,0,0-3.383-4.75c-4.732-4.4-9.334-2.426-15.4-6.636-2.366-1.643-4.032-3.73-7.363-7.9-1.476-1.844-.163-.4-4.4-6.591A8.9,8.9,0,0,1,660.266,102c-.018-.763-.056-2.279.772-2.72,1.365-.724,3.762,2.159,6.6,2.346a1.461,1.461,0,0,1,.792.219c1.2.805.869,3.242,1.017,3.251.125.007-.176-2.083.725-2.794.957-.758,2.937.314,5.818,1.871,10.246,5.543,10.623,5.729,11.852,6.7Z" transform="translate(-609.624 20.532)" fill="#fca583"/>
        <path id="Path_7023" data-name="Path 7023" d="M748.352,91.961a26.04,26.04,0,0,0,32.828,0,35.132,35.132,0,0,1,15.961,8.947c13.123,13.162,14.862,38,2.988,52.6-15.421,18.972-47.589,13.051-64.056-1.724-13.171-11.82-20.535-33.046-14.092-41.823,1.431-1.951,2.711-2.154,13.238-9.055,5.639-3.7,10.168-6.848,13.132-8.947Z" transform="translate(-561.362 14.673)" fill="#7a8efb"/>
        <path id="Path_7024" data-name="Path 7024" d="M840.066,181.479a97.87,97.87,0,0,0-.091,16.362c.007.1.015.2.024.3a96.976,96.976,0,0,0,1.88,12.666c.056.257.113.513.17.767,6.411,16.249,11.145,30.266,14.5,40.94,6.072,19.3,8.4,30.065,9.35,35.343.194,1.064.33,1.9.43,2.547.024.149.043.285.063.412,1.019,6.678,1.585,12.817,1.875,18.22a155.727,155.727,0,0,1-61.047,12.472h-4.645v-.067a155.836,155.836,0,0,1-55.133-11.87c-.729,7.02,0-5.6,0,0,.007-.058.986-19.145.994-19.2.076-.723.172-1.536.29-2.426a279.356,279.356,0,0,1,7.463-34.692A296.542,296.542,0,0,1,770.2,213.51a25.927,25.927,0,0,0,1-2.7,27.425,27.425,0,0,0,1.173-9.561c-.005-.08-.009-.161-.015-.243,0-.029,0-.056-.005-.087q-.016-.258-.038-.517a.3.3,0,0,1,0-.042.031.031,0,0,0,0-.013c-.011-.134-.024-.268-.036-.4,0-.02,0-.04-.007-.06-.013-.131-.027-.261-.044-.392a.177.177,0,0,0,0-.031c-.013-.118-.027-.234-.044-.352-.009-.063-.016-.129-.027-.194-.014-.107-.029-.212-.045-.321-.024-.15-.047-.3-.069-.453q-1.686-11.151-3.372-22.3-1.311-8.679-2.624-17.357c-2.872,3.764-5.7,7.218-8.438,10.378a198.8,198.8,0,0,1-17.241,17.609q-.628.563-1.231,1.1c-11.82,10.451-16.4,11.56-20.167,11.18-6.748-.685-11.283-6.2-18.4-15.714-7.428-9.936-16.8-23.068-27.208-39.261a1.851,1.851,0,0,1,.279-2.323c.5-.444,1-.887,1.494-1.331l11.968-10.661q1.412-1.259,2.825-2.517a1.216,1.216,0,0,1,1.848.25q1,1.433,2,2.865l7.182,10.253,13.738,19.62a10.411,10.411,0,0,0,1.155,1.385c4.152,4.179,10.748,3.421,14.019-2.029q3.527-5.88,7.058-11.763,9.728-16.212,19.455-32.426A27.807,27.807,0,0,1,767.862,102.1l5.091-2.882,13.089-7.41.343,1.273,16.862,62.755.711,2.638.593-2.638,14.391-64.028q5.148,2.51,10.293,5.021h0q1.444.7,2.886,1.407l8.284,4.04a26.018,26.018,0,0,1,8.87,7.188l1.053,1.316,13.789,17.23,4.185,5.227,4.009,5.008.225.281,1.924,2.4,1.982,2.477,1.924,2.4,1.982,2.475,1.924,2.4,1.982,2.477,1.924,2.4L894,165.348l.511,9.515q.74,13.688,1.478,27.369.073,1.393.151,2.783-13.919-13.5-27.835-27.006l-4.185-4.058q-4.069-3.949-8.137-7.9-5.173-5.018-10.344-10.036A104.1,104.1,0,0,0,840.066,181.479Z" transform="translate(-599.215 14.552)" fill="#ffd760"/>
        <path id="Path_7025" data-name="Path 7025" d="M847.506,95H787.271a8.881,8.881,0,0,0-8.839,8.925V209a8.882,8.882,0,0,0,8.839,8.924h60.235A8.881,8.881,0,0,0,856.345,209V103.925A8.881,8.881,0,0,0,847.506,95Z" transform="translate(-513.535 17.144)" fill="#232c59"/>
        <path id="Path_7026" data-name="Path 7026" d="M847.467,97.016H784.242c-2.167,0-3.924,1.472-3.924,3.288V209.343c0,1.815,1.757,3.287,3.924,3.287h63.225c2.166,0,3.924-1.472,3.924-3.287V100.3C851.39,98.488,849.633,97.016,847.467,97.016Z" transform="translate(-512.002 18.783)" fill="#fff"/>
        <path id="Path_7027" data-name="Path 7027" d="M792.721,104.514a3.866,3.866,0,0,0-2.758-.858,12.451,12.451,0,0,0-1.867.143v6.761a13.644,13.644,0,0,0,1.6.083,4.168,4.168,0,0,0,3.01-.99,3.657,3.657,0,0,0,.981-2.673A3.16,3.16,0,0,0,792.721,104.514Zm-2.857,5.416a5.619,5.619,0,0,1-.89-.051v-5.427a4.961,4.961,0,0,1,1.032-.092,2.44,2.44,0,0,1,2.758,2.653A2.63,2.63,0,0,1,789.864,109.929Z" transform="translate(-505.677 24.183)" fill="#232c59"/>
        <path id="Path_7028" data-name="Path 7028" d="M791.807,103.68v6.874h.878V103.68Z" transform="translate(-502.66 24.202)" fill="#232c59"/>
        <path id="Path_7029" data-name="Path 7029" d="M794.017,109.808V107.33h2.647V106.6h-2.647v-2.172h2.8v-.743h-3.677v6.874h3.829v-.745Z" transform="translate(-501.577 24.202)" fill="#232c59"/>
        <path id="Path_7030" data-name="Path 7030" d="M795.539,103.68v.754h2.071v6.119h.888v-6.119h2.083v-.754Z" transform="translate(-499.625 24.202)" fill="#232c59"/>
        <path id="Path_7031" data-name="Path 7031" d="M803.513,104.227a2.785,2.785,0,0,0-1.909-.571,10.175,10.175,0,0,0-1.686.132v6.794h.879v-2.754a3,3,0,0,0,.707.062,2.8,2.8,0,0,0,2.08-.756,2.028,2.028,0,0,0,.526-1.469A1.836,1.836,0,0,0,803.513,104.227Zm-1.989,2.948a2.93,2.93,0,0,1-.727-.071V104.43a3.723,3.723,0,0,1,.828-.071c.968,0,1.6.439,1.6,1.347S802.585,107.175,801.524,107.175Z" transform="translate(-496.065 24.183)" fill="#232c59"/>
        <path id="Path_7032" data-name="Path 7032" d="M803.76,109.808V103.68h-.879v6.874h3.788v-.745Z" transform="translate(-493.655 24.202)" fill="#232c59"/>
        <path id="Path_7033" data-name="Path 7033" d="M808.6,103.68h-1.061l-2.312,6.874h.908l.707-2.161h2.413l.729,2.161h.937Zm-1.576,4.018.665-1.989c.132-.419.243-.836.344-1.244h.02c.1.4.2.805.353,1.253l.667,1.98Z" transform="translate(-491.746 24.202)" fill="#232c59"/>
        <path id="Path_7034" data-name="Path 7034" d="M813.2,103.68v2.876c0,1.072.02,1.907.1,2.825l-.02.011a19.432,19.432,0,0,0-1.224-2.234l-2.181-3.478h-.959v6.874h.829v-2.937c0-1.142-.02-1.969-.071-2.836l.031-.011a21.924,21.924,0,0,0,1.271,2.3l2.163,3.488h.888V103.68Z" transform="translate(-488.745 24.202)" fill="#232c59"/>
        <path id="Path_7035" data-name="Path 7035" d="M848.267,109.109H781.508v1.73h66.759Z" transform="translate(-511.034 28.617)" fill="#bcdaed"/>
        <path id="Path_7036" data-name="Path 7036" d="M848.267,111.047H781.508v1.73h66.759Z" transform="translate(-511.034 30.192)" fill="#bcdaed"/>
        <path id="Path_7037" data-name="Path 7037" d="M848.267,112.977H781.508V114.7h66.759Z" transform="translate(-511.034 31.762)" fill="#bcdaed"/>
        <path id="Path_7038" data-name="Path 7038" d="M848.267,114.914H781.508v1.73h66.759Z" transform="translate(-511.034 33.337)" fill="#bcdaed"/>
        <path id="Path_7039" data-name="Path 7039" d="M848.267,116.852H781.508v1.728h66.759Z" transform="translate(-511.034 34.913)" fill="#bcdaed"/>
        <path id="Path_7040" data-name="Path 7040" d="M785.735,167.917V145.969H783.15v21.948Z" transform="translate(-509.699 58.588)" fill="#bcdaed"/>
        <path id="Path_7041" data-name="Path 7041" d="M788.03,169.017V144.6h-2.585v24.415Z" transform="translate(-507.833 57.477)" fill="#bcdaed"/>
        <path id="Path_7042" data-name="Path 7042" d="M790.323,169.471V144.055h-2.585v25.416Z" transform="translate(-505.969 57.032)" fill="#bcdaed"/>
        <path id="Path_7043" data-name="Path 7043" d="M792.616,166.717V147.438h-2.586v19.279Z" transform="translate(-504.104 59.783)" fill="#bcdaed"/>
        <path id="Path_7044" data-name="Path 7044" d="M794.911,165.044V149.5h-2.586v15.544Z" transform="translate(-502.238 61.459)" fill="#bcdaed"/>
        <path id="Path_7045" data-name="Path 7045" d="M797.2,166.272v-18.28h-2.586v18.28Z" transform="translate(-500.373 60.233)" fill="#bcdaed"/>
        <path id="Path_7046" data-name="Path 7046" d="M799.5,167.29V146.742h-2.586V167.29Z" transform="translate(-498.509 59.217)" fill="#bcdaed"/>
        <path id="Path_7047" data-name="Path 7047" d="M801.79,167.917V145.969h-2.585v21.948Z" transform="translate(-496.644 58.588)" fill="#bcdaed"/>
        <path id="Path_7048" data-name="Path 7048" d="M804.086,166.272v-18.28H801.5v18.28Z" transform="translate(-494.779 60.233)" fill="#bcdaed"/>
        <path id="Path_7049" data-name="Path 7049" d="M806.379,167.917V145.969h-2.587v21.948Z" transform="translate(-492.915 58.588)" fill="#bcdaed"/>
        <path id="Path_7050" data-name="Path 7050" d="M808.672,164.744V149.867h-2.587v14.877Z" transform="translate(-491.05 61.758)" fill="#bcdaed"/>
        <path id="Path_7051" data-name="Path 7051" d="M810.967,166V148.32H808.38V166Z" transform="translate(-489.184 60.5)" fill="#bcdaed"/>
        <path id="Path_7052" data-name="Path 7052" d="M813.26,167.29V146.742h-2.587V167.29Z" transform="translate(-487.32 59.217)" fill="#bcdaed"/>
        <path id="Path_7053" data-name="Path 7053" d="M815.555,168.181V145.633h-2.587v22.548Z" transform="translate(-485.453 58.315)" fill="#bcdaed"/>
        <path id="Path_7054" data-name="Path 7054" d="M817.848,166.272v-18.28h-2.587v18.28Z" transform="translate(-483.589 60.233)" fill="#bcdaed"/>
        <path id="Path_7055" data-name="Path 7055" d="M816.61,136.178a16.773,16.773,0,0,1-16.692,16.853v-5.664a11.211,11.211,0,0,0,7.291-19.614l3.545-4.393A16.881,16.881,0,0,1,816.61,136.178Z" transform="translate(-496.065 40.203)" fill="#96eaa0"/>
        <path id="Path_7056" data-name="Path 7056" d="M805.33,138.148v5.664a16.562,16.562,0,0,1-12.068-5.209l4.069-3.9A11,11,0,0,0,805.33,138.148Z" transform="translate(-501.477 49.427)" fill="#ecc8ac"/>
        <path id="Path_7057" data-name="Path 7057" d="M818.24,125.167l-3.546,4.391A10.984,10.984,0,0,0,807.4,126.8a11.211,11.211,0,0,0-8,18.931l-4.069,3.9A16.887,16.887,0,0,1,807.4,121.133,16.53,16.53,0,0,1,818.24,125.167Z" transform="translate(-503.549 38.393)" fill="#93b8e5"/>
        <path id="Path_7058" data-name="Path 7058" d="M818.909,94.134a1.9,1.9,0,0,0-1.3.589,1.931,1.931,0,0,1-2.68,0,1.9,1.9,0,0,0-1.3-.589,2.007,2.007,0,0,0-1.451.738,1.878,1.878,0,0,1-2.747,0,2,2,0,0,0-1.45-.738,1.807,1.807,0,0,0-1.151.456,1.869,1.869,0,0,1-2.355.025,1.963,1.963,0,0,0-1.24-.48c-1.829,0-3.311,2.968-3.311,6.629s1.481,6.63,3.311,6.63a2.64,2.64,0,0,0,2.109-1.518c.6,1.762,1.561,2.9,2.638,2.9,1.195,0,2.241-1.4,2.823-3.5.582,2.1,1.63,3.5,2.823,3.5,1.08,0,2.04-1.144,2.643-2.91.6,1.768,1.563,2.91,2.642,2.91,1.829,0,3.311-3.278,3.311-7.322s-1.481-7.322-3.311-7.322Z" transform="translate(-496.063 16.439)" fill="#fca583"/>
        <path id="Path_7059" data-name="Path 7059" d="M741.32,91.961l-13.058,6.505L759.2,150.5l.4-.743,27.784-52.292-13.227-5.5L759.2,147.948l-17.533-54.87Z" transform="translate(-554.329 14.673)" fill="#ebf3f3"/>
        <path id="Path_7060" data-name="Path 7060" d="M746.748,122.969h-2.187V268.432h2.187Z" transform="translate(-541.076 39.886)" fill="#ebf3f3"/>
        <path id="Path_7061" data-name="Path 7061" d="M727.295,154.575a21.4,21.4,0,0,0,.9-10.723c-.022-.134-.045-.265-.067-.4h67.818a75.784,75.784,0,0,0,1.876,11.122Z" transform="translate(-555.116 56.542)" fill="#ebf3f3"/>
      </g>
    </g>
  </g>
</svg>
