<svg xmlns="http://www.w3.org/2000/svg" xmlns:xlink="http://www.w3.org/1999/xlink" width="299.312" height="308.855" viewBox="0 0 299.312 308.855">
  <defs>
    <clipPath id="clip-path">
      <rect id="Rectangle_2716" data-name="Rectangle 2716" width="217.468" height="302.673" transform="translate(1132 34.75) rotate(-1.515)" fill="#fff"/>
    </clipPath>
  </defs>
  <g id="or_icon_02" transform="translate(-794.762 -1325.482)">
    <g id="Group_5095" data-name="Group 5095" transform="translate(10172.314 -8439.415)">
      <path id="Path_1352" data-name="Path 1352" d="M235.359,73.368C142.628,41.574,109.951,45.99,71.975,98.979l-.1.18c-9.412,17.01-16.236,29.345-14.031,74,1.45,29.371,64.47,163.383,117.459,176.631S318.375,304.754,347.519,223.5,328.09,105.161,235.359,73.368Z" transform="translate(-9434.504 9721.539)" fill="none" stroke="#ffe6e8" stroke-width="1"/>
      <path id="Path_1353" data-name="Path 1353" d="M222.128,90.922C136.292,61.493,106.046,65.58,70.894,114.63l-.092.165c-8.712,15.746-15.029,27.162-12.987,68.5,1.343,27.187,59.675,151.234,108.725,163.5s132.432-41.692,159.409-116.9S307.963,120.352,222.128,90.922Z" transform="translate(-9434.505 9724.681)" fill="#ffe6e8"/>
      <path id="Path_1354" data-name="Path 1354" d="M83.613,277.629a1.7,1.7,0,1,0-2.095-1.647A1.912,1.912,0,0,0,83.613,277.629Z" transform="translate(-9430.53 9757.988)" fill="#bf8d00"/>
      <path id="Path_1355" data-name="Path 1355" d="M83.613,242.23a1.7,1.7,0,1,0-2.095-1.647A1.912,1.912,0,0,0,83.613,242.23Z" transform="translate(-9430.53 9752.149)" fill="#bf8d00"/>
      <path id="Path_1356" data-name="Path 1356" d="M96,286.5a1.7,1.7,0,1,0-2.095-1.647A1.912,1.912,0,0,0,96,286.5Z" transform="translate(-9428.488 9759.451)" fill="#bf8d00"/>
      <path id="Path_1357" data-name="Path 1357" d="M96,277.629a1.7,1.7,0,1,0-2.095-1.647A1.912,1.912,0,0,0,96,277.629Z" transform="translate(-9428.488 9757.988)" fill="#bf8d00"/>
      <path id="Path_1358" data-name="Path 1358" d="M96,259.941a1.7,1.7,0,1,0-2.095-1.647A1.912,1.912,0,0,0,96,259.941Z" transform="translate(-9428.488 9755.07)" fill="#bf8d00"/>
      <path id="Path_1359" data-name="Path 1359" d="M96,233.386a1.7,1.7,0,1,0-2.095-1.647A1.912,1.912,0,0,0,96,233.386Z" transform="translate(-9428.488 9750.69)" fill="#bf8d00"/>
      <path id="Path_1360" data-name="Path 1360" d="M96,224.541a1.7,1.7,0,1,0-2.095-1.647A1.912,1.912,0,0,0,96,224.541Z" transform="translate(-9428.488 9749.231)" fill="#bf8d00"/>
      <path id="Path_1361" data-name="Path 1361" d="M108.36,277.629a1.7,1.7,0,1,0-2.095-1.647A1.912,1.912,0,0,0,108.36,277.629Z" transform="translate(-9426.449 9757.988)" fill="#bf8d00"/>
      <path id="Path_1362" data-name="Path 1362" d="M108.36,268.785a1.7,1.7,0,1,0-2.095-1.648A1.913,1.913,0,0,0,108.36,268.785Z" transform="translate(-9426.449 9756.529)" fill="#bf8d00"/>
      <path id="Path_1363" data-name="Path 1363" d="M108.36,251.1a1.7,1.7,0,1,0-2.095-1.647A1.912,1.912,0,0,0,108.36,251.1Z" transform="translate(-9426.449 9753.612)" fill="#bf8d00"/>
      <path id="Path_1364" data-name="Path 1364" d="M108.36,242.23a1.7,1.7,0,1,0-2.095-1.647A1.912,1.912,0,0,0,108.36,242.23Z" transform="translate(-9426.449 9752.149)" fill="#bf8d00"/>
      <path id="Path_1365" data-name="Path 1365" d="M108.36,224.541a1.7,1.7,0,1,0-2.095-1.647A1.912,1.912,0,0,0,108.36,224.541Z" transform="translate(-9426.449 9749.231)" fill="#bf8d00"/>
      <path id="Path_1366" data-name="Path 1366" d="M120.747,286.5a1.7,1.7,0,1,0-2.095-1.647A1.912,1.912,0,0,0,120.747,286.5Z" transform="translate(-9424.405 9759.451)" fill="#bf8d00"/>
      <path id="Path_1367" data-name="Path 1367" d="M120.747,277.629a1.7,1.7,0,1,0-2.095-1.647A1.912,1.912,0,0,0,120.747,277.629Z" transform="translate(-9424.405 9757.988)" fill="#bf8d00"/>
      <path id="Path_1368" data-name="Path 1368" d="M120.747,268.785a1.7,1.7,0,1,0-2.095-1.648A1.913,1.913,0,0,0,120.747,268.785Z" transform="translate(-9424.405 9756.529)" fill="#bf8d00"/>
      <path id="Path_1369" data-name="Path 1369" d="M120.747,259.941a1.7,1.7,0,1,0-2.095-1.647A1.912,1.912,0,0,0,120.747,259.941Z" transform="translate(-9424.405 9755.07)" fill="#bf8d00"/>
      <path id="Path_1370" data-name="Path 1370" d="M120.747,242.23a1.7,1.7,0,1,0-2.095-1.647A1.912,1.912,0,0,0,120.747,242.23Z" transform="translate(-9424.405 9752.149)" fill="#bf8d00"/>
      <path id="Path_1371" data-name="Path 1371" d="M120.747,233.386a1.7,1.7,0,1,0-2.095-1.647A1.912,1.912,0,0,0,120.747,233.386Z" transform="translate(-9424.405 9750.69)" fill="#bf8d00"/>
      <path id="Path_1372" data-name="Path 1372" d="M120.747,215.7a1.7,1.7,0,1,0-2.095-1.647A1.912,1.912,0,0,0,120.747,215.7Z" transform="translate(-9424.405 9747.771)" fill="#bf8d00"/>
      <path id="Path_1373" data-name="Path 1373" d="M133.134,277.629a1.7,1.7,0,1,0-2.095-1.647A1.912,1.912,0,0,0,133.134,277.629Z" transform="translate(-9422.362 9757.988)" fill="#bf8d00"/>
      <path id="Path_1374" data-name="Path 1374" d="M133.134,259.941a1.7,1.7,0,1,0-2.095-1.647A1.912,1.912,0,0,0,133.134,259.941Z" transform="translate(-9422.362 9755.07)" fill="#bf8d00"/>
      <path id="Path_1375" data-name="Path 1375" d="M133.134,242.23a1.7,1.7,0,1,0-2.095-1.647A1.912,1.912,0,0,0,133.134,242.23Z" transform="translate(-9422.362 9752.149)" fill="#bf8d00"/>
    </g>
    <g id="Group_5093" data-name="Group 5093" transform="translate(-300 1296.482)" clip-path="url(#clip-path)">
      <path id="Path_7069" data-name="Path 7069" d="M1277.162,127.539c.3,11.578-6.827,17.322-17.236,36.127-10.427,18.8-38,25.56-57.613,23.76-19.594-1.793-18.424-8.778-29.454-13.58-11.065-4.8-20.091-19.394-15.144-38.976a47.744,47.744,0,0,0,1.507-8.5,14.571,14.571,0,0,0-1.241-7.678c-1.454-3.354-3.866-6.517-5.462-14.491-.284-1.314-.532-2.769-.745-4.381-2.819-21.237,9.54-18.317,27.787-50.762q.612-1.084,1.223-2.085a43.416,43.416,0,0,1,4.823-6.434c8.529-9.373,18.282-10.518,26.173-9.136h0a41.071,41.071,0,0,1,15.232,6.2c3.937-4.319,7.767-5.79,11.384-5.376,6.349.711,12.058,7.18,16.616,14.029,4.5,6.814,7.856,14.013,9.5,16.3a14.324,14.324,0,0,1,1.347,2.378c2.891,6.138,4.983,17.7,4.682,25.617a22.185,22.185,0,0,1-.621,4.759C1267.87,103.228,1276.861,115.963,1277.162,127.539Z" transform="translate(14.982 1.484)" fill="#2b1b22"/>
      <path id="Path_7070" data-name="Path 7070" d="M1200.433,59.1c-27.22,13.459-19.24,44.97-30.7,56.2a17.051,17.051,0,0,1-10.515,5.225,14.764,14.764,0,0,0-1.224-7.677c4.362-2.391,8.565-6.346,9.806-12.844,2.926-15.158,1.206-32.011,14.966-42.519s27.06-10.082,35.075-16.008a129.691,129.691,0,0,1-18.655,2.917c-10.019.782-22.13,6.132-26.794,17.008-4.025,9.444-8.122,31.614-19.878,36.954-.266-1.314-.514-2.769-.745-4.381-2.819-21.237,9.54-18.317,27.787-50.762q.612-1.084,1.223-2.085a57.928,57.928,0,0,1,13.158-2.482c19.719-.874,23.194,1.985,32.806,1.3,0,0,.922,5.7-26.315,19.159Z" transform="translate(14.982 7.33)" fill="#422f2f"/>
      <path id="Path_7071" data-name="Path 7071" d="M1200.563,41.609s14.2,5.865,18.158,29.688c3.937,23.813,18.07,36.7,18.07,36.7-11.473.3-20.871-16.867-26.865-40.626-5.976-23.769-14.736-25.878-14.736-25.878,7.554-4.359,12.4-4.747,25.5,7.905a94.652,94.652,0,0,0,11.3,9.483c2.873,6.138,4.983,17.7,4.682,25.617-6.33-4.65-11.97-16.927-17.839-28.29-8.352-16.164-18.265-14.6-18.265-14.6Z" transform="translate(48.863 7.532)" fill="#422f2f"/>
      <path id="Path_7072" data-name="Path 7072" d="M1211.678,44.472c-.532-.226-22.29-9.212-41-3.935,8.529-9.371,18.282-10.515,26.173-9.133h0C1202,33.626,1207.085,37.717,1211.678,44.472Z" transform="translate(29.91 1.484)" fill="#422f2f"/>
      <path id="Path_7073" data-name="Path 7073" d="M1220.792,45.686c-13.495-10.831-25.162-2.025-25.162-2.025,1.064-5.39,4.415-9.253,8.547-12C1210.525,32.368,1216.235,38.837,1220.792,45.686Z" transform="translate(49.203 2.055)" fill="#422f2f"/>
      <path id="Path_7074" data-name="Path 7074" d="M1171.492,141.371c3.263-4.274,27.875-37.31,16.9-43.782a5.879,5.879,0,0,0-7.625,1.725c-4.079,5.424-13.317,17.731-21.226,28.375a24.629,24.629,0,0,1,11.952,13.679Z" transform="translate(21.296 52.454)" fill="#fff"/>
      <g id="Group_5080" data-name="Group 5080" transform="translate(1184.152 149.213)" opacity="0.45">
        <path id="Path_7075" data-name="Path 7075" d="M1170.046,141.415c3.369-4.412,29.454-39.434,15.747-44.32a5.568,5.568,0,0,0-6.3,2.027c-.018.017-.035.032-.053.049-3.6,6.877-10.87,20.3-18.034,30.582a25.246,25.246,0,0,1,8.653,11.661Z" transform="translate(-1161.41 -96.791)"/>
      </g>
      <path id="Path_7076" data-name="Path 7076" d="M1214.062,242.208a2.429,2.429,0,0,0,.018.353h0l-4.7.087-8.866.161-11.278.216c-1.6-7.559-2.784-12.659-2.908-12.979,0,0-3.954-13.784-7.856-26.966h-.018c-.124-.411-.231-.826-.355-1.238-.248-.826-.5-1.64-.727-2.451-.6-2.02-1.206-4-1.773-5.871.266-.656.532-1.309.8-1.944.16-.4.319-.8.479-1.2.479-1.19.94-2.337,1.4-3.449.107-.291.231-.591.355-.88.355-.869.709-1.711,1.028-2.515.23-.532.443-1.055.656-1.56,1.968-4.806,3.4-8.116,3.777-8.616,1.56-2.186,17.892-29.848,21.474-25.191,1.915,2.474,3.866,6.887,5.355,11.083.089.248.177.5.266.741.142.431.284.862.426,1.284.124.348.231.7.337,1.034s.213.661.3.981c.213.651.39,1.266.55,1.844.071.284.142.569.213.833.16.569.284,1.094.373,1.544v.011c.071.294.124.56.16.8.532,3.128.248,28.406.355,41.929.035,3.605.089,6.368.2,7.668.372,4.522-.692,12.86-.036,24.281Z" transform="translate(33.715 91.744)" fill="#2b3b54"/>
      <g id="Group_5081" data-name="Group 5081" transform="translate(1209.314 239.389)" opacity="0.45">
        <path id="Path_7077" data-name="Path 7077" d="M1214.062,242.208a2.429,2.429,0,0,0,.018.353l-4.7.087-8.866.161c-2.962-16.748-6.065-30.192-7.678-33.33-2.855-5.517-9.629-6.476-14.381-6.4h0c-.124-.411-.248-.826-.355-1.238-.248-.826-.5-1.64-.727-2.451-.621-2.02-1.206-4-1.773-5.871.266-.656.532-1.309.78-1.944.16-.4.337-.8.5-1.2.479-1.188.94-2.337,1.4-3.449.107-.291.231-.591.355-.88.337-.869.691-1.711,1.028-2.515.23-.532.443-1.055.656-1.56,1.968-4.806,3.4-8.116,3.759-8.616,1.578-2.186,17.91-29.848,21.492-25.191,1.915,2.474,3.848,6.887,5.337,11.083.089.248.177.5.266.741.16.431.3.862.443,1.284.124.348.231.7.337,1.034s.213.661.3.981c.195.651.39,1.266.55,1.844.071.284.142.569.213.833q.213.854.373,1.544v.011c.053.294.106.56.16.8.532,3.128.248,28.406.355,41.929.035,3.605.089,6.368.2,7.668.372,4.522-.709,12.86-.053,24.281Z" transform="translate(-1175.6 -147.645)"/>
      </g>
      <path id="Path_7078" data-name="Path 7078" d="M1227.436,177.961q-.053,1.474-.106,3.139a.1.1,0,0,0,0,.1c-.018.491-.036,1-.053,1.518a.866.866,0,0,0-.018.222c-.018.518-.053,1.044-.071,1.582v.119c-.018.722-.053,1.454-.089,2.2s-.071,1.511-.107,2.279a.363.363,0,0,0,0,.138c-.035.612-.053,1.224-.088,1.844-.018.649-.053,1.286-.089,1.935-.018.342-.036.7-.053,1.046-.036.926-.071,1.85-.124,2.786v.138c-.036.926-.071,1.85-.124,2.766,0,.037-.017.083-.017.138-.018.621-.036,1.231-.071,1.844-.036.63-.053,1.259-.089,1.878-.035.936-.071,1.851-.124,2.741-.018.592-.035,1.176-.071,1.75-.018.573-.036,1.128-.071,1.685-.018.546-.035,1.082-.053,1.6-.16,4.055-.248,7.21-.2,8.622.16,4.073-.976,11.138-1.1,20.793l-13.973.268-6.614.119-.018,0-4.681.087c-1.029-6.139-1.773-10.15-1.88-10.434,0,0-3.351-13.956-6.667-27.3-.815-3.334-1.667-6.641-2.429-9.671,4.7-10.313,8.724-18.933,9.363-19.747.55-.69,2.766-3.983,5.621-7.96v-.011c.284-.4.585-.8.887-1.215.39-.548.8-1.094,1.206-1.649.142-.179.284-.367.408-.548.691-.935,1.4-1.858,2.11-2.784.869-1.1,1.738-2.179,2.589-3.21.284-.34.568-.681.851-1.011l.425-.482c.284-.321.568-.635.834-.938.142-.153.283-.3.425-.445a5.883,5.883,0,0,1,.408-.436c2.784-2.929,5.2-4.706,6.455-3.86a.367.367,0,0,1,.124.108.5.5,0,0,1,.124.117c.053.044.071.09.124.135a31.042,31.042,0,0,1,3.032,6.095c.373.961.745,1.959,1.082,2.968s.674,2.018.957,3.018c.142.5.284.981.426,1.467s.266.956.39,1.413c.053.229.124.457.177.69.16.67.319,1.305.443,1.9.088.4.177.784.248,1.14.142.708.249,1.314.3,1.814a73.139,73.139,0,0,1-.035,7.5Z" transform="translate(43.659 93.094)" fill="#2b3b54"/>
      <g id="Group_5082" data-name="Group 5082" transform="translate(1232.119 242.484)" opacity="0.45">
        <path id="Path_7079" data-name="Path 7079" d="M1227.436,177.961q-.053,1.474-.106,3.139a.1.1,0,0,0,0,.1c-.018.491-.053,1-.053,1.518a.866.866,0,0,0-.018.222c-.018.518-.053,1.044-.071,1.582v.119c-.018.722-.053,1.454-.089,2.2s-.071,1.511-.107,2.279a.363.363,0,0,0,0,.138c-.035.612-.053,1.224-.088,1.844-.018.649-.053,1.286-.089,1.935-.018.342-.036.7-.053,1.046-.036.926-.071,1.85-.124,2.786v.138c-.036.926-.071,1.85-.124,2.766,0,.037-.017.083-.017.138-.018.621-.036,1.231-.071,1.844-.036.63-.053,1.259-.089,1.878-.035.936-.071,1.851-.124,2.741-.018.592-.035,1.176-.071,1.75-.018.573-.036,1.137-.071,1.685-.018.546-.035,1.082-.053,1.6-.16,4.055-.248,7.21-.2,8.622.16,4.073-.976,11.138-1.1,20.793l-13.973.268c-2.11-15.383-4.416-27.482-5.781-30.486a10.361,10.361,0,0,0-1.011-1.692c-3.032-4.212-8.849-5.221-13.069-5.35-.815-3.334-1.667-6.641-2.429-9.671,4.7-10.313,8.724-18.933,9.363-19.747.55-.69,2.766-3.983,5.621-7.96v-.011c.284-.4.585-.8.887-1.215.39-.548.8-1.094,1.206-1.649.142-.179.284-.367.408-.548.691-.935,1.4-1.858,2.11-2.784.869-1.1,1.738-2.179,2.589-3.21.284-.34.568-.681.851-1.011l.425-.482c.284-.321.568-.635.834-.938.142-.153.283-.3.425-.445a5.883,5.883,0,0,1,.408-.436c2.784-2.929,5.2-4.706,6.455-3.86a.367.367,0,0,1,.124.108.5.5,0,0,1,.124.117c.053.044.071.09.124.135a31.042,31.042,0,0,1,3.032,6.095c.373.961.727,1.959,1.082,2.968.337,1.009.656,2.025.957,3.018.142.5.284.981.426,1.467s.266.956.39,1.413c.053.229.124.457.177.69.16.67.319,1.305.443,1.9.088.4.177.784.248,1.14.142.708.249,1.325.3,1.823.124.913.071,3.687-.035,7.49Z" transform="translate(-1188.46 -149.39)"/>
      </g>
      <path id="Path_7080" data-name="Path 7080" d="M1236.863,188.716c5.107,17.16,9.363,32.351,8.671,42.615a80.277,80.277,0,0,0,.071,8.673,17.7,17.7,0,0,1-4.681,4.236h0a1.431,1.431,0,0,1-.16.112c-.018-1.261-.036-2.513-.036-3.742v-2.7c0-.317.018-.619.018-.927,0-1.229,0-2.412.036-3.534,0-.379,0-.743.018-1.107,0-.053.018-.1.018-.151,0-.61.018-1.192.053-1.752,0-.557.035-1.089.053-1.6.035-.638.071-1.275.089-1.913.035-.814.035-1.617.035-2.422a63.418,63.418,0,0,0-1.685-15.807c-.089-.362-.195-.716-.283-1.06a24.835,24.835,0,0,0-2.873-6.581c-.2-.284-.39-.567-.6-.825a10.251,10.251,0,0,0-.957-1.092c-.106-.106-.213-.209-.319-.316v.254c0,.275.018.741.053,1.39v.309a3.264,3.264,0,0,1,.018.422c0,.2.018.415.018.633.018.3.018.626.035.968.018.59.035,1.25.053,1.963.018.282.018.573.018.872.018.562.035,1.144.053,1.761v.282c.018.731.035,1.507.053,2.318,0,.344,0,.7.018,1.059,0,.449.018.908.018,1.367.018.935.018,1.9.035,2.91v1.915c0,.654.018,1.316.018,1.986v4.151c-.018,1.862-.035,3.8-.071,5.768-.018,1.229-.036,2.467-.071,3.715-.053,2.617-.142,5.283-.248,7.967-.036.9-.089,1.809-.124,2.72-.036.6-.053,1.206-.089,1.816s-.071,1.208-.106,1.811c0,0-5.55.9-15.729.181-.408-.02-.816-.055-1.242-.089-3.688-.3-7.926-.8-12.679-1.623q-2.261-.391-4.682-.881a92.306,92.306,0,0,0-18.229-2.121,43.17,43.17,0,0,0-5.214.293c.319-7.24.709-14.688,1.188-21.517.479-6.733,1.046-14.1,1.507-21.474.071-1.19.159-2.385.213-3.575,1.117-19.286,1.294-37.92-3.227-44.587a36.836,36.836,0,0,1-6.011-16.844,33.154,33.154,0,0,1,.461-6.361,47.091,47.091,0,0,0,2.89-24.487c0-.01.018-.02.036-.03a17.027,17.027,0,0,1,2.8-1.881c1.383-.787,3-1.58,4.717-2.369.443-.2.869-.4,1.312-.6.426-.186.851-.382,1.277-.568,1.294-.588,2.624-1.167,3.883-1.735.532-.247,1.064-.487,1.578-.724.036-.021.089-.044.124-.064.319-.152.621-.291.922-.439s.6-.29.887-.439c.266-.128.532-.266.78-.392a23.335,23.335,0,0,0,3.493-2.152h.018l5,.244,17.484-2.68s.975.7,2.624,1.781c.319.22.674.453,1.064.7.568.366,1.206.762,1.862,1.184.8.479,1.631.991,2.536,1.514.3.186.621.363.94.539.958.555,1.968,1.111,3.015,1.666.372.189.763.386,1.135.584s.763.4,1.153.574c.248.13.5.249.745.369q.665.329,1.33.628c.621.292,1.259.571,1.9.846s1.277.534,1.933.78c0,0,.036.137.107.414v.01c3.139,18.864-4.7,39.083-5.533,41.193v0a.126.126,0,0,1-.018.044v.011a.065.065,0,0,1-.018.037c-.018.062-.053.144-.089.254s-.089.246-.142.4v.009c-.053.154-.106.335-.177.527-.035.108-.071.209-.106.319-.106.291-.213.617-.319.972-.213.608-.426,1.289-.638,2.014-.071.254-.16.505-.231.77-.071.2-.124.4-.177.608-.071.2-.124.408-.177.614-.266.922-.5,1.851-.674,2.717-.071.261-.106.512-.16.754-.053.294-.106.592-.142.86a2.965,2.965,0,0,0-.035.383c-.018.124-.036.241-.053.356-.142,1.628.319,5,1.277,9.671.124.582.266,1.188.408,1.81q.505,2.367,1.17,5.082c.142.536.284,1.087.408,1.642.142.562.284,1.131.443,1.711.106.379.2.775.3,1.163v.011c.16.589.319,1.192.479,1.8.319,1.218.674,2.467,1.028,3.752.2.638.373,1.291.55,1.947.514,1.757,1.028,3.566,1.578,5.426Z" transform="translate(29.302 47.374)" fill="#f55e66"/>
      <g id="Group_5083" data-name="Group 5083" transform="translate(1205.378 140.069)" opacity="0.45">
        <path id="Path_7081" data-name="Path 7081" d="M1173.38,101.11c5.586-3.168,15.232-6.508,18.992-9.475l4.291,3.165-4.522,19.244A75.44,75.44,0,0,1,1173.38,101.11Z" transform="translate(-1173.38 -91.635)"/>
      </g>
      <path id="Path_7082" data-name="Path 7082" d="M1184.195,97.008l4.291,3.165s-4.77,19.338-4.522,19.244,9.1-20.079,9.1-20.079l13.637-4.754-1.543-9.9-21.137,1.8.177,10.522Z" transform="translate(40.175 43.06)" fill="#e89b7c"/>
      <path id="Path_7083" data-name="Path 7083" d="M1229.506,195.835s-3.742,9.42-17.183,16.708c-13.424,7.288-27.8,12.172-27.858,10.093-.018-1.126-1.1-37.934-1.578-52.327-.036-.97-.036-1.942-.036-2.91a105.553,105.553,0,0,1,9.434-44.415c7.146-15.7,15.286-32.719,15.286-32.719,1.1.711,2.376,1.462,3.742,2.23,7.253,4.107,16.97,8.714,16.97,8.714l.5.9c1.862,12.775-7.448,46.656-8.671,52.061-1.206,5.4,9.4,41.659,9.4,41.659Z" transform="translate(39.32 47.374)" fill="#fff"/>
      <path id="Path_7084" data-name="Path 7084" d="M1195.517,91.634s-10.161,21.765-9.611,52.436c.124,7.061.124,14.826.035,22.595-.266,25.95-1.383,51.932-1.383,51.932a18.479,18.479,0,0,1-8.813-9.641c-3-7.207,4.114-33.263-2.89-55.961-6.969-22.7-1.7-26.223-.585-30.153,1.1-3.931,1.933-8.262,1.436-19.805,0,0,.975-2.262,16.314-9.04,1.667-.738,3.493-1.525,5.515-2.365Z" transform="translate(28.852 48.431)" fill="#fff"/>
      <path id="Path_7085" data-name="Path 7085" d="M1211.383,109.331l-8.44-.821,5.763,5.313s-7.678,13.729-16.722,29.3a85.679,85.679,0,0,0-9.132,24.271,105.309,105.309,0,0,1,9.452-44.415c7.128-15.7,15.268-32.718,15.268-32.718,1.1.711,2.376,1.462,3.742,2.23.071,3.262.195,10.258.089,16.834Z" transform="translate(39.32 47.375)" fill="#fff"/>
      <path id="Path_7086" data-name="Path 7086" d="M1190.628,91.632s-10.178,21.765-9.611,52.435c.124,7.061.124,14.828.035,22.595-8.653-21.256-4.344-56.986-4.344-56.986l6.916-2.264-5.5-1.935a32.691,32.691,0,0,1,7-11.485c1.667-.738,3.493-1.525,5.5-2.365Z" transform="translate(33.741 48.428)" fill="#fff"/>
      <g id="Group_5084" data-name="Group 5084" transform="translate(1214.049 137.637)" opacity="0.45">
        <path id="Path_7087" data-name="Path 7087" d="M1239.057,231.338a84.327,84.327,0,0,0,.053,8.669,17.411,17.411,0,0,1-4.664,4.238c-.071.037-.106.074-.16.106-.018-1.257-.036-2.516-.036-3.734v-3.635c.018-1.229.018-2.415.053-3.532,0-.379,0-.741.018-1.1a.469.469,0,0,0,0-.158q.027-.915.053-1.75c.035-.553.053-1.1.088-1.608.018-.64.053-1.277.053-1.906.035-.814.053-1.619.053-2.424a63.509,63.509,0,0,0-1.685-15.814c-.088-.356-.195-.715-.283-1.055a24.233,24.233,0,0,0-2.89-6.581,7.386,7.386,0,0,0-.585-.825,12.474,12.474,0,0,0-.957-1.094c-.106-.1-.213-.207-.319-.314l-.018-.011v.1c.018.035,0,.092.018.167,0,.268.018.741.053,1.385v.314c0,.129.017.268.017.415,0,.2.018.415.018.638l.036.97c.018.6.035,1.247.053,1.958l.018.88c.018.553.035,1.146.053,1.754v.287c.018.731.036,1.507.036,2.319.018.342.018.7.018,1.053.018.456.018.906.018,1.367.035.935.035,1.9.053,2.912v3.9c0,1.341.017,2.727,0,4.149,0,1.858-.018,3.793-.053,5.772-.018,1.222-.053,2.461-.071,3.71-.053,2.617-.142,5.284-.248,7.967-.036.908-.089,1.8-.124,2.72-.036.6-.071,1.2-.089,1.814-.035.6-.071,1.2-.106,1.814,0,0-5.55.9-15.729.177-.408-.016-.816-.051-1.241-.087a45.076,45.076,0,0,0-5.905-25.5,46.854,46.854,0,0,0-15-15.821,25.434,25.434,0,0,0-8.618-3.823c-.957-.168-1.862-.358-2.766-.564.053-1.305.089-2.647.142-4.045,6.49.809,13.654,0,19.754-3.665,14.24-8.558,18.761-31.8,12.448-39.409-6.313-7.629-21.935-11.4-30.606-9.8-.337.066-.692.121-1.046.167q-.026-2.093,0-4.133c.55-.126,1.1-.27,1.631-.431,6.632-1.977,13.193,1.112,25.145-.546,11.934-1.656,7.767-16.449,7.767-16.449a96.3,96.3,0,0,1-18.265-5.111c-1.9-.736-3.688-1.52-5.373-2.318-.443-.2-.869-.4-1.277-.615l8.175-18.622.213-.5c.3-.673.479-1.076.479-1.076l13.636-4.751s.975.705,2.607,1.789c.337.212.691.453,1.082.693.568.374,1.206.772,1.862,1.179.78.479,1.631.991,2.536,1.514.3.186.6.363.94.539.94.558,1.968,1.113,3.015,1.668.372.194.745.388,1.135.58.373.194.745.378,1.153.579.23.123.5.247.745.369.425.219.869.431,1.312.621.638.3,1.277.576,1.915.846s1.277.539,1.915.782a4.168,4.168,0,0,1,.124.412v.01c3.139,18.86-4.7,39.086-5.533,41.2v.02a.026.026,0,0,0-.018.027v.011a.069.069,0,0,0-.018.035,2.288,2.288,0,0,1-.106.254,2.938,2.938,0,0,1-.124.4c0,.009-.018.009-.018.009-.053.149-.106.335-.177.521a1,1,0,0,1-.106.317c-.089.309-.213.624-.319.979-.2.606-.408,1.286-.638,2.013-.071.254-.16.505-.23.764-.053.206-.106.4-.177.6-.053.206-.106.411-.177.614-.248.924-.479,1.855-.674,2.718-.053.262-.106.511-.142.752-.071.3-.106.6-.159.864,0,.129-.035.261-.035.381a2.607,2.607,0,0,0-.036.36c-.142,1.621.319,4.993,1.277,9.664.124.591.248,1.2.39,1.812.337,1.58.745,3.281,1.188,5.08.124.543.266,1.092.408,1.642s.284,1.138.426,1.718c.106.376.213.771.3,1.158v.009c.16.589.319,1.193.5,1.809.319,1.213.656,2.468,1.01,3.754.2.633.373,1.295.55,1.945.514,1.761,1.028,3.57,1.6,5.432,5.107,17.155,9.345,32.353,8.671,42.615Z" transform="translate(-1178.27 -90.264)"/>
      </g>
      <path id="Path_7088" data-name="Path 7088" d="M1213.812,229.579a13.889,13.889,0,0,0,3.333-.5c3.227-.892,5.285-2.674,5.231-4.543l-1.986.053c0,.621-1.295,1.85-3.759,2.532-3.4.942-8.157.592-10.373-3.484-1.65-3.034-1.188-4.018.035-6.646,1.525-3.325,3.866-8.356,3.831-20.933-.018-15.942-5.054-27.979-8.724-36.769a56.323,56.323,0,0,1-3.44-9.625c-1.507-7.928.532-17.094,3.9-32.282l.5-2.24c2.855-12.841-.053-20.781-1.826-24.134a1.764,1.764,0,0,0-2.7-.567c.071.078,6.171,8.069,2.571,24.254l-.5,2.238c-3.422,15.449-5.5,24.771-3.9,33.117a56.331,56.331,0,0,0,3.564,10.035c3.6,8.627,8.529,20.448,8.565,35.976.018,12.124-2.181,16.9-3.653,20.068-1.259,2.738-2.11,4.548.035,8.49C1206.595,228.434,1210.336,229.67,1213.812,229.579Z" transform="translate(49.073 47.197)" fill="#f89e1b"/>
      <path id="Path_7089" data-name="Path 7089" d="M1166.582,226.154l1.578-1.222a6.014,6.014,0,0,0-.372-.473c-1.206-1.429-3.015-3.594,1.844-7.895a35.911,35.911,0,0,1,4.238-3.227c2.766-1.844,3.724-2.718,5.657-8.9,2.713-8.691,3.582-11.563,7.359-26.12,2.944-11.312,1.4-27.626-.088-43.4-.426-4.557-.869-9.271-1.206-13.789-1.4-19.368,9.044-28,9.15-28.09a1.8,1.8,0,0,0-2.749-.134c-3.068,3.306-9.558,12.314-8.388,28.371.337,4.54.78,9.265,1.206,13.831,1.472,15.6,3,31.731.142,42.693-3.759,14.512-4.628,17.371-7.324,26.024-1.809,5.792-2.518,6.26-4.859,7.818a37.642,37.642,0,0,0-4.451,3.394c-6.348,5.618-3.334,9.21-2.057,10.744.124.14.23.266.319.381Z" transform="translate(25.071 48.966)" fill="#f89e1b"/>
      <path id="Path_7090" data-name="Path 7090" d="M1148.891,99.324c.638-1.318-1.011-3.5-3.724-4.872-2.7-1.372-5.408-1.416-6.047-.1s1.01,3.5,3.724,4.871C1145.539,100.6,1148.252,100.642,1148.891,99.324Z" transform="translate(5.399 49.794)" fill="#816f5e"/>
      <g id="Group_5085" data-name="Group 5085" transform="translate(1146.239 143.253)" opacity="0.3">
        <path id="Path_7091" data-name="Path 7091" d="M1140.03,97.877a9.948,9.948,0,0,0,6.011,2.374c2.287-.06,2.873-1.652,1.294-3.558a10.344,10.344,0,0,0-5.94-3.262,6.3,6.3,0,0,1,.958.958c1.578,1.9.993,3.5-1.277,3.558A6.024,6.024,0,0,1,1140.03,97.877Z" transform="translate(-1140.03 -93.431)"/>
      </g>
      <g id="Group_5086" data-name="Group 5086" transform="translate(1146.239 143.253)" opacity="0.3">
        <path id="Path_7092" data-name="Path 7092" d="M1140.03,97.877a9.948,9.948,0,0,0,6.011,2.374c2.287-.06,2.873-1.652,1.294-3.558a10.344,10.344,0,0,0-5.94-3.262,6.3,6.3,0,0,1,.958.958c1.578,1.9.993,3.5-1.277,3.558A6.024,6.024,0,0,1,1140.03,97.877Z" transform="translate(-1140.03 -93.431)"/>
      </g>
      <path id="Path_7093" data-name="Path 7093" d="M1171.349,143.75l39.455-1.172-39.969-46.523-34.579.914-2.536,1.262Z" transform="translate(1.33 51.852)" fill="#e4e2da"/>
      <path id="Path_7094" data-name="Path 7094" d="M1171.349,143.227l37.1-.981-37.629-45.518-37.1.981Z" transform="translate(1.33 52.372)" fill="#816f5e"/>
      <path id="Path_7095" data-name="Path 7095" d="M1140.439,108.844a1.545,1.545,0,0,0,.284,1.259c.958,1.459,3.085,4.669,4.735,7.031,2.181,3.151,2.873,4.073,4.061,4.9s6.951,3.245,6.951,3.245l-1.6-1.828a6.621,6.621,0,0,0,2.146-2.928c.284-1.465.053-2.688-1.277-2.594,1.489-2.029,1.472-4.518-1.206-4.3,1.915-1.75,2.305-3.734-1.241-3.2s-7.749.677-7.749.677a5.571,5.571,0,0,0,.372-3.532c-.372-2.273-1.383-5.667-3.3-4.5-1.667,1.027-1.72,4.352-2.181,5.77Z" transform="translate(6.492 57.095)" fill="#e89b7c"/>
      <g id="Group_5087" data-name="Group 5087" transform="translate(1152.091 168.5)" opacity="0.45">
        <path id="Path_7096" data-name="Path 7096" d="M1143.33,110.56a65.5,65.5,0,0,0,4.628,6.857c1.082,1.1,3.494,2.357,3.37,3.4.957.442,1.667.759,1.667.759l-1.454-1.764a6.124,6.124,0,0,0,1.951-2.816c.266-1.415.053-2.594-1.153-2.5,1.348-1.952,1.33-4.352-1.1-4.146,1.028-1,1.578-2.075,1.17-2.681-2.146,1.617-9.079,2.89-9.079,2.89Z" transform="translate(-1143.33 -107.668)"/>
      </g>
      <g id="Group_5088" data-name="Group 5088" transform="translate(1147.463 161.461)" opacity="0.45">
        <path id="Path_7097" data-name="Path 7097" d="M1142.032,111.225s.213.418,3.245.238a3.464,3.464,0,0,0,.319-.86,6.467,6.467,0,0,0,.036-2.465c-.284-1.75-.975-4.208-2.181-4.438a8.266,8.266,0,0,1,.621,2.593c.337,3.124-1.844,3.951-3.352,4.149a.174.174,0,0,0,.036.08c.089.131.195.275.284.429Z" transform="translate(-1140.72 -103.699)"/>
      </g>
      <path id="Path_7098" data-name="Path 7098" d="M1150.111,111.7a5.579,5.579,0,0,1-.692.865,8.451,8.451,0,0,1-.78.75,8.772,8.772,0,0,1-.851.663,6.534,6.534,0,0,1-.958.55,6.712,6.712,0,0,1,.692-.865c.248-.264.514-.514.78-.75.284-.234.567-.456.869-.663a6.348,6.348,0,0,1,.94-.55Z" transform="translate(11.468 63.949)" fill="#cc7a5e"/>
      <path id="Path_7099" data-name="Path 7099" d="M1150.578,109.42a12.878,12.878,0,0,1-1.365.942c-.461.289-.94.555-1.419.81s-.975.491-1.472.706a12.548,12.548,0,0,1-1.543.576,12.871,12.871,0,0,1,1.365-.942c.461-.289.94-.555,1.418-.809s.976-.489,1.472-.706a12.526,12.526,0,0,1,1.543-.576Z" transform="translate(9.882 62.186)" fill="#cc7a5e"/>
      <path id="Path_7100" data-name="Path 7100" d="M1237.463,120.58a46.593,46.593,0,0,1-6.685.419,57.991,57.991,0,0,1-8.068-.654c-.16,2.674-.266,5.584-.284,8.755l-.142,2.194c-.089,1.19-.2,3.034-.354,5.87-4.717-.764-31.742-8.109-33.94-9.953-2.2-1.86-10.586-12.885-11.6-14.477-1.011-1.573-4.5-3.33-9.008-4.846-4.522-1.545-3.635.642-2.873,2.266a17.447,17.447,0,0,0,2.961,3.742,6.742,6.742,0,0,0-1.153,2.291c-.213,1.1-1.277,11.6-.638,12.379.39.482,1.915,1.05,5.816,2.275,2.323.739,5.5,1.693,9.788,3.015.674.624,1.348,1.24,2.039,1.855,22.255,19.687,51.62,30.507,54.794,24.219,3.281-6.483,4.557-28.12,4.557-28.12s.443-5.476.8-12.361a40.024,40.024,0,0,1-6.011,1.135Z" transform="translate(24.66 60.593)" fill="#e89b7c"/>
      <path id="Path_7101" data-name="Path 7101" d="M1165.91,111.138a4.245,4.245,0,0,1,4.877,1.752A4.228,4.228,0,0,1,1165.91,111.138Z" transform="translate(26.222 63.351)" fill="#cc7a5e"/>
      <path id="Path_7102" data-name="Path 7102" d="M1174.85,142.729c.2.17.39.342.585.511.3.264.6.521.9.778.284.257.585.5.887.759s.6.5.9.75.621.5.922.741a.991.991,0,0,0,.142.119c.514.419,1.046.835,1.56,1.234,3.156,2.46,6.384,4.731,9.593,6.813.6.39,1.206.77,1.809,1.149l.975.608c.621.369,1.241.741,1.862,1.1.3.186.621.362.922.548a120.21,120.21,0,0,0,11.721,5.983c.3.122.568.248.869.372,1.117.481,2.217.935,3.3,1.339.266.106.55.206.8.3.266.1.532.188.8.287,1.029.369,2.039.7,3.015,1,.248.074.479.145.727.209.461.145.94.266,1.383.385.231.055.461.121.692.167.213.055.426.114.656.158.177.039.372.078.55.126.106.014.195.032.3.053.5.1.993.184,1.472.261.638.1,1.241.161,1.808.2.124.014.266.02.39.027,2.713.129,4.575-.429,5.249-1.766v-.011c3.281-6.492,4.557-28.112,4.557-28.112s2.589-32.469.142-38.722c0,0-8.8-6.2-14.842,4.213-3.068,5.29-5.444,14.89-5.55,31.8l-.142,2.194c-.089,1.19-.2,3.034-.355,5.87-4.717-.764-31.742-8.109-33.94-9.952a4.413,4.413,0,0,0-1.578.876c-1.241,1.02-2.819,3.172-3.085,7.621Z" transform="translate(33.135 53.566)" fill="#fff"/>
      <g id="Group_5089" data-name="Group 5089" transform="translate(1196.099 151.847)" opacity="0.45">
        <path id="Path_7103" data-name="Path 7103" d="M1168.2,137.76c0,.034-.018.071,0,.1,2.323.739,5.5,1.693,9.771,3.015.674.626,1.365,1.24,2.057,1.855.2.17.39.342.585.511.3.264.6.521.9.778.284.257.585.5.887.759s.6.5.9.75.62.5.9.741a1.014,1.014,0,0,1,.142.121c.532.418,1.064.833,1.578,1.232,3.156,2.46,6.366,4.733,9.593,6.813.6.39,1.206.77,1.809,1.149l.975.608c.621.371,1.241.743,1.844,1.1l.94.548a117.867,117.867,0,0,0,11.721,5.983c.3.122.568.25.869.372,1.117.481,2.216.935,3.3,1.339.266.106.532.206.8.3s.514.188.78.289q1.57.551,3.032,1c.248.074.479.145.727.209.461.145.94.266,1.383.387.23.055.461.119.692.167.213.055.426.112.656.156.177.039.372.078.55.126.106.016.195.032.284.053.514.1,1.011.186,1.49.261.621.1,1.223.161,1.808.2.125.014.249.02.391.027,2.713.129,4.575-.429,5.249-1.766v-.011c3.263-6.492,4.557-28.112,4.557-28.112s2.589-32.469.142-38.722c0,0-8.813-6.2-14.842,4.213,2.784-1.234,7.022-1.594,8.636,6.167,2.5,12.06-.6,32.715-.6,32.715s-1.241,13.723-7.838,15.713-42.629-17.844-43.587-18.348c-.975-.521,1.933-5.348,1.933-5.348l-.106-.11L1170.9,122.893s-3.138,5.742-2.713,14.864Z" transform="translate(-1168.147 -98.277)"/>
      </g>
      <path id="Path_7104" data-name="Path 7104" d="M1225.141,90.72l-13.211,14.91,2.5-21.215" transform="translate(61.807 42.851)" fill="#8698fc"/>
      <path id="Path_7105" data-name="Path 7105" d="M1226.38,107.519l50.113-1.325a14.465,14.465,0,0,0,13.938-14.968l-.16-5.814a14.457,14.457,0,0,0-14.7-14.21l-50.113,1.325A14.468,14.468,0,0,0,1211.5,87.494l.16,5.814A14.472,14.472,0,0,0,1226.38,107.519Z" transform="translate(61.473 32.629)" fill="#8698fc"/>
      <path id="Path_7106" data-name="Path 7106" d="M1252.559,84.256a3.51,3.51,0,0,0-.124-4.9,3.374,3.374,0,0,0-4.823.127,3.527,3.527,0,0,0,.142,4.9A3.353,3.353,0,0,0,1252.559,84.256Z" transform="translate(88.687 38.202)" fill="#fff"/>
      <path id="Path_7107" data-name="Path 7107" d="M1245.322,84.452a3.51,3.51,0,0,0-.124-4.9,3.374,3.374,0,0,0-4.823.127,3.51,3.51,0,0,0,.142,4.9A3.353,3.353,0,0,0,1245.322,84.452Z" transform="translate(83.085 38.353)" fill="#fff"/>
      <path id="Path_7108" data-name="Path 7108" d="M1238.086,84.639a3.51,3.51,0,0,0-.142-4.9,3.353,3.353,0,0,0-4.805.127,3.509,3.509,0,0,0,.124,4.9A3.373,3.373,0,0,0,1238.086,84.639Z" transform="translate(77.483 38.498)" fill="#fff"/>
      <path id="Path_7109" data-name="Path 7109" d="M1229.229,85.8a3.47,3.47,0,0,0,2.429-4.236,3.4,3.4,0,0,0-4.167-2.468,3.474,3.474,0,0,0-2.412,4.236A3.393,3.393,0,0,0,1229.229,85.8Z" transform="translate(71.888 38.651)" fill="#fff"/>
      <path id="Path_7110" data-name="Path 7110" d="M1222,85.99a3.47,3.47,0,0,0,2.429-4.236,3.418,3.418,0,0,0-4.167-2.468,3.47,3.47,0,0,0-2.429,4.236A3.419,3.419,0,0,0,1222,85.99Z" transform="translate(66.281 38.796)" fill="#fff"/>
      <path id="Path_7111" data-name="Path 7111" d="M1187.36,91.8c.053-.026.124-.054.177-.08v.147c-.053-.023-.124-.047-.177-.07Z" transform="translate(42.808 48.502)" fill="#e89b7c"/>
      <path id="Path_7112" data-name="Path 7112" d="M1187.25,91.734c.071.023.124.047.2.07-.071.026-.124.054-.2.08v-.15Z" transform="translate(42.723 48.511)" fill="#e89b7c"/>
      <path id="Path_7113" data-name="Path 7113" d="M1234.375,99.105a27.907,27.907,0,0,1-1.844,9.563,89.889,89.889,0,0,1-29.6,20.865l-.177.085c-.071-.023-.124-.052-.195-.075a90.124,90.124,0,0,1-30.624-19.241c-.018-.007-.018-.017-.036-.024v-.007l-.036-.12c-.2-.474-.851-2.323-1.631-5.113l-.018-.1a75.449,75.449,0,0,1-2.749-19.214c-.053-13.246,24.152-30.171,34.49-35.16s11.774-6.854,11.774-6.854,13.406,15.321,17.449,32.106c2.429,10.164,3.422,17.525,3.192,23.286Z" transform="translate(27.428 11.379)" fill="#e89b7c"/>
      <g id="Group_5090" data-name="Group 5090" transform="translate(1205.797 87.111)" opacity="0.45">
        <path id="Path_7114" data-name="Path 7114" d="M1179.723,80.238c2.961-.22,5.089-4.53,4.717-9.627s-3.086-9.051-6.047-8.832c-2.979.22-5.107,4.53-4.735,9.628S1176.744,80.458,1179.723,80.238Z" transform="translate(-1173.616 -61.771)"/>
      </g>
      <path id="Path_7115" data-name="Path 7115" d="M1178.8,77.062c1.968-.146,3.369-3,3.121-6.367s-2.039-5.986-4.008-5.84-3.369,3-3.121,6.367S1176.832,77.207,1178.8,77.062Z" transform="translate(33.068 27.72)" fill="#1a1723"/>
      <path id="Path_7116" data-name="Path 7116" d="M1177.419,67.879c.089,1.056-.337,1.968-.957,2.036s-1.188-.734-1.277-1.79.337-1.969.94-2.036C1176.745,66.022,1177.313,66.823,1177.419,67.879Z" transform="translate(33.385 28.677)" fill="#fff"/>
      <path id="Path_7117" data-name="Path 7117" d="M1177.476,68.845c.036.536-.177,1-.479,1.03-.319.032-.6-.37-.656-.906-.036-.536.177-1,.479-1.03C1177.14,67.9,1177.423,68.309,1177.476,68.845Z" transform="translate(34.285 30.109)" fill="#fff"/>
      <g id="Group_5091" data-name="Group 5091" transform="translate(1239.372 86.323)" opacity="0.45">
        <path id="Path_7118" data-name="Path 7118" d="M1203.136,70.622c.231-4.985-1.933-9.145-4.859-9.292-2.908-.146-5.48,3.776-5.71,8.762s1.933,9.145,4.859,9.292C1200.334,79.53,1202.905,75.607,1203.136,70.622Z" transform="translate(-1192.551 -61.326)"/>
      </g>
      <path id="Path_7119" data-name="Path 7119" d="M1200.472,70.481c.159-3.3-1.277-6.048-3.21-6.145s-3.618,2.5-3.777,5.794,1.277,6.048,3.21,6.145S1200.312,73.778,1200.472,70.481Z" transform="translate(47.535 27.323)" fill="#1a1723"/>
      <path id="Path_7120" data-name="Path 7120" d="M1196.252,67.351c-.071,1.034-.621,1.818-1.224,1.751s-1.046-.958-.975-1.99.621-1.818,1.223-1.752S1196.323,66.32,1196.252,67.351Z" transform="translate(47.978 28.114)" fill="#fff"/>
      <path id="Path_7121" data-name="Path 7121" d="M1196.091,68.328c-.036.523-.319.919-.621.886s-.514-.484-.479-1.007.3-.919.6-.886C1195.914,67.354,1196.127,67.8,1196.091,68.328Z" transform="translate(48.706 29.631)" fill="#fff"/>
      <path id="Path_7122" data-name="Path 7122" d="M1192.821,55.291c-1.418,2.806-.585,4.37-.585,4.37a34.548,34.548,0,0,1,5.816,1.466c.159.054.319.113.479.167.106.046.23.084.337.127a25.544,25.544,0,0,1,4.008,1.953c.23.144.461.289.674.431.23.152.443.3.621.442a11.112,11.112,0,0,1,2.057,1.825,13.38,13.38,0,0,0-.78-3.022,6.99,6.99,0,0,0-.372-.845,5.918,5.918,0,0,0-.408-.759,10.756,10.756,0,0,0-2.837-3.2,5.46,5.46,0,0,0-.461-.347c-.16-.112-.319-.217-.5-.317a16.514,16.514,0,0,0-8.051-2.288Z" transform="translate(46.39 20.33)" fill="#2b1b22"/>
      <path id="Path_7123" data-name="Path 7123" d="M1200.035,59.187a9.461,9.461,0,0,0-1.525,1.6c.213.152.443.3.621.442a8.814,8.814,0,0,1,1.277-1.2,7.062,7.062,0,0,0-.372-.845Z" transform="translate(51.43 23.343)" fill="#35282f"/>
      <path id="Path_7124" data-name="Path 7124" d="M1198.831,56.954a9,9,0,0,0-2.961,3.177,25.533,25.533,0,0,1,4.008,1.953,10.581,10.581,0,0,1,1.791-1.93A10.756,10.756,0,0,0,1198.831,56.954Z" transform="translate(49.389 21.616)" fill="#35282f"/>
      <path id="Path_7125" data-name="Path 7125" d="M1195.41,60.129c.16.054.319.113.479.167a11.8,11.8,0,0,1,2.837-3.4c-.16-.112-.319-.217-.479-.317a11.953,11.953,0,0,0-2.837,3.547Z" transform="translate(49.033 21.328)" fill="#35282f"/>
      <g id="Group_5092" data-name="Group 5092" transform="translate(1194.898 55.095)" opacity="0.45">
        <path id="Path_7126" data-name="Path 7126" d="M1173.765,80.3a60.132,60.132,0,0,0,2.092,16.756,44.016,44.016,0,0,0,2.075,5.684c3.777,8.479,10.906,16.856,24.223,22.973,0,0,16.917-6.9,28.426-18.163-.23.395-7.749,12.99-28.035,21.312a117.742,117.742,0,0,1-30.607-18.559c-.018-.007-.018-.017-.036-.024v-.007l-.036-.12-1.631-5.113-.018-.1a75.449,75.449,0,0,1-2.749-19.214c-.053-13.246,24.152-30.171,34.49-35.16s11.774-6.854,11.774-6.854,13.406,15.321,17.449,32.106c2.429,10.164,3.422,17.525,3.192,23.286-1.755-6.69-3.865-17.756-6.792-27.793-3.706-12.688-15.392-21.966-15.392-21.966l-8.015,4.027s-11.668,5.26-20.552,12.411c-.993.8-1.95,1.618-2.855,2.463-.142.125-.266.26-.408.392a3.7,3.7,0,0,0-.337.31,31.427,31.427,0,0,0-3.015,3.383c-.177.223-.355.456-.514.679s-.319.473-.479.7a16.682,16.682,0,0,0-.993,1.748,10.892,10.892,0,0,0-1.259,4.839Z" transform="translate(-1167.47 -43.716)"/>
      </g>
      <path id="Path_7127" data-name="Path 7127" d="M1185.087,55.77c1.436,2.868.6,4.464.6,4.464a35.38,35.38,0,0,0-5.958,1.491c-.16.055-.319.115-.479.171-.124.047-.23.086-.337.128a25.137,25.137,0,0,0-4.1,1.99q-.372.221-.691.441c-.23.154-.443.306-.639.452a11.424,11.424,0,0,0-2.11,1.862,13.915,13.915,0,0,1,.8-3.088c.124-.3.248-.587.372-.862.142-.268.284-.529.426-.776a11.332,11.332,0,0,1,2.89-3.268c.16-.126.319-.242.479-.353.177-.114.337-.22.5-.324A16.937,16.937,0,0,1,1185.087,55.77Z" transform="translate(30.451 20.701)" fill="#2b1b22"/>
      <path id="Path_7128" data-name="Path 7128" d="M1172.2,59.744a9.291,9.291,0,0,1,1.578,1.637c-.231.154-.443.306-.656.452a8.376,8.376,0,0,0-1.294-1.226c.124-.3.248-.587.372-.862Z" transform="translate(30.799 23.774)" fill="#35282f"/>
      <path id="Path_7129" data-name="Path 7129" d="M1175.17,57.463a9.289,9.289,0,0,1,3.05,3.249,25.144,25.144,0,0,0-4.1,1.99,11.428,11.428,0,0,0-1.844-1.972A11.33,11.33,0,0,1,1175.17,57.463Z" transform="translate(31.147 22.01)" fill="#35282f"/>
      <path id="Path_7130" data-name="Path 7130" d="M1177.559,60.713c-.159.055-.319.115-.479.171a12.028,12.028,0,0,0-2.89-3.474c.16-.114.319-.22.5-.324A12.112,12.112,0,0,1,1177.559,60.713Z" transform="translate(32.624 21.718)" fill="#35282f"/>
      <path id="Path_7131" data-name="Path 7131" d="M1188.212,84.251l-.5-18.969s-6.082,8.22-3.972,14.233C1185.872,85.527,1188.212,84.251,1188.212,84.251Z" transform="translate(39.668 28.055)" fill="#f2bca9"/>
      <path id="Path_7132" data-name="Path 7132" d="M1185.1,68.146c-.231,3.423-2.252,12.932,2.8,13.25a4.446,4.446,0,0,0,2.482-.413c2.465-1.462,1.49-6.741,1.082-9.217-.266-1.45-.6-2.9-.94-4.371a23.937,23.937,0,0,1,2.039,4.038c1.1,2.9,2.075,6.351.869,9.414-.993,2.347-3.44,3.182-5.763,2.918a5.187,5.187,0,0,1-4.7-4.356c-.763-3.883.585-7.806,2.128-11.266Z" transform="translate(39.248 29.69)" fill="#cc7a5e"/>
      <path id="Path_7133" data-name="Path 7133" d="M1195.63,75.147c1.631-1.068,3.848,1.176,2.589,2.777A16.328,16.328,0,0,1,1195.63,75.147Z" transform="translate(49.203 35.47)" fill="#cc7a5e"/>
      <path id="Path_7134" data-name="Path 7134" d="M1183.55,82.154s-.035-8.1,12.271-1.582C1195.821,80.572,1188.533,84.732,1183.55,82.154Z" transform="translate(39.862 37.918)" fill="#d56969"/>
      <path id="Path_7135" data-name="Path 7135" d="M1184.333,85.5s-2.429.118-1.809,1.913,8.866,4.47,12.519-1.713c3.671-6.182-8.21-.6-8.21-.6l-2.5.406Z" transform="translate(38.99 41.595)" fill="#d56969"/>
      <path id="Path_7136" data-name="Path 7136" d="M1203.266,77.473a20.2,20.2,0,0,1-.425,3.957,12.408,12.408,0,0,1-1.348,3.508c-2.483,4.294-7.146,5.405-11.083,5.468a26.472,26.472,0,0,1-6.685-.783l1.578-.649a25.606,25.606,0,0,0-2.092-6.064,14.277,14.277,0,0,0,1.862.383c8.866,1.21,18.194-5.819,18.194-5.819Z" transform="translate(39.599 37.482)" fill="#2b1b22"/>
      <path id="Path_7137" data-name="Path 7137" d="M1202.461,77.471a20.137,20.137,0,0,1-.426,3.955c-9.221,7.235-15.2,4.108-17.786,1.857,8.884,1.21,18.212-5.814,18.212-5.814Z" transform="translate(40.403 37.479)" fill="#fff"/>
      <path id="Path_7138" data-name="Path 7138" d="M1180.89,83.343a33.416,33.416,0,0,0,16.367-1.912A73.236,73.236,0,0,0,1209,75.445a24.515,24.515,0,0,1-6.366,6.193,23.022,23.022,0,0,1-14.2,4.04,15.55,15.55,0,0,1-7.537-2.334Z" transform="translate(37.805 35.915)" fill="#cc7a5e"/>
    </g>
  </g>
</svg>
