<svg xmlns="http://www.w3.org/2000/svg" width="22.857" height="26.667" viewBox="0 0 22.857 26.667">
  <path id="pdf-Icon" d="M24.416,7.858a3.463,3.463,0,0,1,.714,1.131,3.434,3.434,0,0,1,.3,1.31V27.442A1.423,1.423,0,0,1,24,28.87H4a1.423,1.423,0,0,1-1.429-1.429V3.632A1.423,1.423,0,0,1,4,2.2H17.333a3.435,3.435,0,0,1,1.31.3,3.463,3.463,0,0,1,1.131.714ZM17.809,4.227v5.6h5.6a1.626,1.626,0,0,0-.327-.61L18.419,4.555a1.625,1.625,0,0,0-.61-.327Zm5.714,22.738V11.727H17.333A1.423,1.423,0,0,1,15.9,10.3V4.108H4.475V26.966H23.523Zm-7.649-8.824a11.323,11.323,0,0,0,1.25.833,14.767,14.767,0,0,1,1.741-.1q2.188,0,2.634.729a.719.719,0,0,1,.03.774.043.043,0,0,1-.015.03l-.03.03v.015q-.089.565-1.057.565a6.139,6.139,0,0,1-1.711-.3,10.851,10.851,0,0,1-1.935-.789,26.8,26.8,0,0,0-5.833,1.235q-2.277,3.9-3.6,3.9a.865.865,0,0,1-.417-.1l-.357-.179q-.015-.015-.089-.074a.615.615,0,0,1-.089-.536,3.232,3.232,0,0,1,.833-1.362A7.192,7.192,0,0,1,9.193,21.37a.217.217,0,0,1,.342.089.086.086,0,0,1,.03.06q.774-1.265,1.592-2.932a22.712,22.712,0,0,0,1.548-3.9,12.029,12.029,0,0,1-.454-2.374,5.786,5.786,0,0,1,.1-1.9q.164-.6.625-.6H13.3a.627.627,0,0,1,.521.223,1.189,1.189,0,0,1,.134,1.012.323.323,0,0,1-.06.119.387.387,0,0,1,.015.119v.446A19.487,19.487,0,0,1,13.7,14.6a7.529,7.529,0,0,0,2.173,3.542ZM7.3,24.257a6.571,6.571,0,0,0,2.039-2.351,8.483,8.483,0,0,0-1.3,1.25A4.946,4.946,0,0,0,7.3,24.257Zm5.923-13.691a4.425,4.425,0,0,0-.03,1.964q.015-.1.1-.655,0-.045.1-.64a.335.335,0,0,1,.06-.119.043.043,0,0,1-.015-.03.03.03,0,0,0-.007-.022.03.03,0,0,1-.007-.022.856.856,0,0,0-.193-.536.043.043,0,0,1-.015.03v.03ZM11.38,20.4A21.827,21.827,0,0,1,15.607,19.2a2.245,2.245,0,0,1-.193-.141,2.665,2.665,0,0,1-.238-.2,7.883,7.883,0,0,1-1.89-2.619,19.886,19.886,0,0,1-1.235,2.932Q11.6,20,11.38,20.4Zm9.613-.238a3.561,3.561,0,0,0-2.083-.357,5.629,5.629,0,0,0,1.845.417,1.443,1.443,0,0,0,.268-.015q0-.015-.03-.045Z" transform="translate(-2.571 -2.204)" fill="#fff"/>
</svg>
