<svg xmlns="http://www.w3.org/2000/svg" width="49" height="49" viewBox="0 0 49 49">
  <g id="r_icon_02" transform="translate(-11 -11)">
    <path id="Path_6825" data-name="Path 6825" d="M108.466,217.734h6.813a2,2,0,0,1,0,4H111.2a.545.545,0,0,0-.545.545V225.1a.545.545,0,0,0,.545.545h4.106a1.97,1.97,0,1,1,0,3.94h-3.632a1.019,1.019,0,0,0-1.019,1.019v6.642a2.036,2.036,0,0,1-4.072,0V219.615a1.881,1.881,0,0,1,1.881-1.881Z" transform="translate(-86.027 -186.061)"/>
    <path id="Path_6826" data-name="Path 6826" d="M254.077,279.278H242.9a.7.7,0,0,0-.658.952,4.092,4.092,0,0,0,1.238,1.751,4.664,4.664,0,0,0,3.083,1,5.3,5.3,0,0,0,3.074-.927,1.837,1.837,0,0,1,2.106,3.011,7.272,7.272,0,0,1-.976.574,9.436,9.436,0,0,1-4.175.857,8.251,8.251,0,0,1-6.108-2.366,8.049,8.049,0,0,1-2.358-5.925,8.322,8.322,0,0,1,2.351-6.057,7.9,7.9,0,0,1,5.9-2.41,8.189,8.189,0,0,1,6.123,2.41,8.709,8.709,0,0,1,2.358,6.365.777.777,0,0,1-.776.762Zm-3.9-3.149a.453.453,0,0,0,.4-.658,4.059,4.059,0,0,0-1.305-1.51,4.531,4.531,0,0,0-2.707-.835,4.787,4.787,0,0,0-2.935.938,4.331,4.331,0,0,0-1.131,1.4.451.451,0,0,0,.4.668Z" transform="translate(-204.413 -232.868)"/>
    <path id="Path_6827" data-name="Path 6827" d="M273.105,83.154a.87.87,0,0,1,.384,1.177l-1.074,2.085a.3.3,0,0,0,.229.43,2.786,2.786,0,0,1,1.645.847,3.036,3.036,0,1,1-4.314,4.274,2.918,2.918,0,0,1-.867-2.077,3.135,3.135,0,0,1,.134-.9,9.057,9.057,0,0,1,.618-1.387l2.08-4.071a.871.871,0,0,1,1.165-.383Zm-1,5.4a1.128,1.128,0,0,0-.857.369,1.4,1.4,0,0,0,.016,1.861,1.137,1.137,0,0,0,.847.379,1.185,1.185,0,0,0,.876-.373A1.387,1.387,0,0,0,273,88.92a1.189,1.189,0,0,0-.893-.369Z" transform="translate(-232.298 -64.856)"/>
    <path id="Path_6828" data-name="Path 6828" d="M183.812,86.38a.882.882,0,0,1-.84-1.15,3.1,3.1,0,0,1,.777-1.287,3.436,3.436,0,0,1,3.852-.52,2.755,2.755,0,0,1,1.067,1.061,2.787,2.787,0,0,1,.4,1.409,4.169,4.169,0,0,1-.485,1.835,10,10,0,0,1-1.774,2.323l-.819.863a.159.159,0,0,0,.115.269h2.2a.843.843,0,1,1,0,1.685h-5.168a.619.619,0,0,1-.442-1.052l2.783-2.838a8.636,8.636,0,0,0,1.428-1.747,2.571,2.571,0,0,0,.355-1.194,1.228,1.228,0,0,0-.368-.914,1.209,1.209,0,0,0-.4-.263,1.387,1.387,0,0,0-1.73.642,1.663,1.663,0,0,0-.106.256.888.888,0,0,1-.842.624Z" transform="translate(-154.364 -64.849)"/>
    <path id="Path_6829" data-name="Path 6829" d="M54.369,11H16.631A5.631,5.631,0,0,0,11,16.631V54.369A5.631,5.631,0,0,0,16.631,60H54.369A5.631,5.631,0,0,0,60,54.369V16.631A5.631,5.631,0,0,0,54.369,11Zm1.979,41.367a3.981,3.981,0,0,1-3.981,3.981H18.633a3.981,3.981,0,0,1-3.981-3.981V18.633a3.981,3.981,0,0,1,3.981-3.981H52.367a3.981,3.981,0,0,1,3.981,3.981Z"/>
  </g>
</svg>
