<svg id="Capa_1" enable-background="new 0 0 512 512" height="512" viewBox="0 0 512 512" width="512" xmlns="http://www.w3.org/2000/svg"><g><g><path d="m292.231 159.683c-2.929 2.929-2.929 7.678 0 10.606 1.464 1.464 3.384 2.197 5.303 2.197s3.839-.732 5.303-2.197l8.059-8.059c2.929-2.929 2.929-7.678 0-10.606-2.929-2.929-7.678-2.929-10.606 0z"/><path d="m283.653 136.694h11.396c4.142 0 7.5-3.358 7.5-7.5s-3.358-7.5-7.5-7.5h-11.396c-4.142 0-7.5 3.358-7.5 7.5s3.358 7.5 7.5 7.5z"/><path d="m111.823 119.937c15.354 13.313 34.479 19.901 53.576 19.901 21.088-.001 42.141-8.036 58.027-23.922 30.271-30.271 32.037-79.292 4.021-111.602-2.266-2.613-5.548-4.182-9.006-4.305-3.465-.131-6.843 1.209-9.288 3.654l-22.456 22.456c-2.929 2.929-2.929 7.677 0 10.606 2.929 2.93 7.678 2.929 10.606 0l20.525-20.524c21.078 26.377 19.086 65.012-5.01 89.108-24.097 24.095-62.732 26.087-89.109 5.01l48.593-48.594c2.929-2.929 2.929-7.678 0-10.606-2.929-2.929-7.678-2.929-10.606 0l-50.525 50.525c-2.445 2.445-3.776 5.83-3.653 9.287s1.692 6.739 4.305 9.006z"/><path d="m184.602 78.53c-2.929 2.929-2.929 7.678 0 10.606l7.188 7.188c1.464 1.464 3.384 2.197 5.303 2.197s3.839-.732 5.303-2.197c2.929-2.929 2.929-7.678 0-10.606l-7.188-7.188c-2.929-2.929-7.678-2.929-10.606 0z"/><path d="m165.168 85.737c-4.142 0-7.5 3.358-7.5 7.5v10.165c0 4.142 3.358 7.5 7.5 7.5s7.5-3.358 7.5-7.5v-10.165c0-4.142-3.358-7.5-7.5-7.5z"/><path d="m200.747 67.191h10.166c4.142 0 7.5-3.358 7.5-7.5s-3.358-7.5-7.5-7.5h-10.166c-4.142 0-7.5 3.358-7.5 7.5s3.358 7.5 7.5 7.5z"/><path d="m442.984 309.982h-15.194c-.288-1.129-.61-2.26-.999-3.397 24.78-5.75 41.336-20.78 41.336-38.541 0-11.874-7.443-22.734-20.385-30.353 22.415-24.392 25.433-58.696 6.345-77.783-3.699-3.699-7.974-6.558-12.633-8.616-.319-12.006-3.651-23.751-9.697-34.081-2.092-3.575-6.687-4.777-10.261-2.684-3.575 2.092-4.776 6.686-2.684 10.261 4.065 6.946 6.577 14.708 7.386 22.721-3.517-.286-7.121-.22-10.764.195-2.72-22.575-21.981-40.131-45.277-40.131-12.903 0-24.559 5.397-32.863 14.038l-7.566-7.566c10.245-10.58 24.574-17.182 40.429-17.182 9.177 0 18.282 2.254 26.33 6.519 3.66 1.939 8.199.545 10.139-3.115s.545-8.199-3.115-10.139c-10.204-5.407-21.737-8.265-33.354-8.265-19.992 0-38.074 8.28-51.034 21.578l-34.6-34.601c-2.428-2.428-5.775-3.77-9.223-3.65-3.451.109-6.743 1.661-9.031 4.258-20.856 23.68-27.173 55.509-19.353 84.157-8.543 2.636-16.194 9.279-21.977 19.1-11.208-10.336-24.813-16.921-38.631-18.639-10.099-1.257-19.529.17-27.594 4.023-11.914-8.946-26.689-14.275-42.701-14.275-39.331 0-71.329 31.998-71.329 71.329 0 25.003 12.942 47.025 32.47 59.762-1.888 3.594-3.18 7.469-3.738 11.563-1.123 8.239.826 16.329 5.087 23.514h-17.126c-4.785 0-9.419 1.989-12.715 5.458-3.319 3.493-5.012 8.059-4.767 12.855 2.041 39.936 15.438 78.205 38.742 110.671 22.828 31.803 53.95 56.481 90.002 71.367 2.68 1.106 5.544 1.667 8.516 1.667h142.051c2.971 0 5.836-.561 8.516-1.667 36.052-14.885 67.174-39.563 90.002-71.367 23.304-32.466 36.701-70.736 38.742-110.671.245-4.796-1.448-9.362-4.767-12.855-3.296-3.469-7.93-5.458-12.715-5.458zm-72.826-187.408c16.225 0 29.535 12.687 30.549 28.66-7.443 2.732-14.724 6.886-21.387 12.405l-31.424-31.424c5.586-5.928 13.495-9.641 22.262-9.641zm-2.973 59.533c.954 2.509 3.176 4.316 5.827 4.74 2.649.421 5.325-.602 7.014-2.688 1.442-1.782 2.95-3.463 4.481-4.995 18.645-18.644 45.102-22.523 58.975-8.65 13.874 13.875 9.994 40.33-8.651 58.975-1.505 1.505-3.16 2.992-4.918 4.419-2.083 1.69-3.104 4.364-2.679 7.012s2.231 4.867 4.738 5.821c13.049 4.965 21.156 13.128 21.156 21.302 0 11.832-16.373 22.749-38.085 25.394-2.498.304-4.677 1.841-5.802 4.092s-1.046 4.916.21 7.097c1.046 1.816 1.904 3.606 2.59 5.356h-2.906l-47.257-47.257 42.563-42.563c2.929-2.929 2.929-7.678 0-10.606-2.929-2.929-7.678-2.929-10.606 0l-42.563 42.563-34.451-34.451c-2.503-2.503-5.956-3.863-9.509-3.75-3.548.121-6.921 1.725-9.256 4.4-6.576 7.535-11.668 15.899-15.317 24.716-2.659-7.428-4.016-14.809-3.902-21.595.093-5.538 1.333-15.454 8.593-19.645 2.09-1.207 4.556-1.803 7.282-1.803 4.363 0 9.391 1.528 14.607 4.524 2.18 1.252 4.841 1.329 7.088.205 2.248-1.124 3.784-3.298 4.091-5.792 2.665-21.655 13.577-37.984 25.381-37.984 8.177-.002 16.341 8.108 21.306 21.163zm19.145 126.284c-.876.572-1.772 1.102-2.685 1.591h-34.46c-3.074-1.646-5.962-3.757-8.551-6.346-12.395-12.395-13.979-31.568-4.755-45.696zm-149.162-37.162c-22.821 0-41.781 16.845-45.102 38.753h-10.793c3.399-27.831 27.161-49.463 55.895-49.463s52.496 21.632 55.895 49.463h-10.793c-3.321-21.909-22.281-38.753-45.102-38.753zm29.834 38.753h-59.667c3.126-13.587 15.311-23.753 29.833-23.753s26.708 10.166 29.834 23.753zm24.21-39.607c1.407-14.444 6.922-28.574 16.661-40.442l17.242 17.242c-13.861 18.628-13.49 44.569 1.109 62.807h-18.064c-1.445-15.053-7.594-28.745-16.948-39.607zm-15.384-189.017 65.035 65.035c-15.505 2.794-28.287 18.441-33.503 40.794-3.07-1.046-6.112-1.727-9.104-2.034-2.348-.24-4.65-.227-6.885.009-5.852-16.86-16.389-28.636-28.927-31.906-7.865-24.041-3.516-51.331 13.384-71.898zm-118.141 95.539c6.466-6.466 15.974-9.288 26.771-7.946 11.494 1.429 22.931 7.323 32.203 16.596 1.535 1.535 3.042 3.215 4.482 4.994 1.688 2.087 4.365 3.109 7.014 2.689 2.65-.423 4.873-2.231 5.827-4.74 4.965-13.055 13.129-21.165 21.306-21.165 8.913 0 17.312 9.314 22.04 23.197-8.49 6.228-13.261 16.971-13.492 30.664-.175 10.428 2.335 21.806 7.156 32.879-10.072-5.448-21.593-8.547-33.826-8.547-.083 0-.165.006-.248.006l-29.587-29.587c-2.929-2.929-7.678-2.929-10.606 0-2.929 2.929-2.929 7.678 0 10.606l21.536 21.536c-23.4 6.441-42.03 24.515-49.218 47.599-12.665-4.838-21.005-12.811-21.005-21.254 0-8.174 8.106-16.337 21.156-21.302 2.506-.954 4.313-3.173 4.738-5.821s-.596-5.321-2.679-7.012c-1.76-1.428-3.415-2.915-4.918-4.419-9.273-9.273-15.167-20.71-16.597-32.204-1.342-10.795 1.48-20.302 7.947-26.769zm-58.67 63.676c-8.202-5.498-13.623-14.835-13.623-25.43 0-16.883 13.736-30.619 30.619-30.619 7.141 0 13.706 2.47 18.918 6.584-.269 1.878-.439 3.795-.496 5.751-7.695.175-15.025 2.489-21.166 7.157-10.703 8.135-15.636 21.835-14.252 36.557zm14.895 26.258c2.367-.427 4.386-1.962 5.429-4.13 1.042-2.167.982-4.704-.162-6.819-8.332-15.406-7-32.196 3.166-39.923 3.876-2.947 8.594-4.292 13.627-4.217 2.676 11.609 8.71 22.83 17.451 32.333-12.941 7.618-20.383 18.479-20.383 30.352 0 15.251 12.216 28.479 31.356 35.556h-66.781c-6.725-5.948-10.405-13.648-9.337-21.488 1.447-10.617 11.509-19.12 25.634-21.664zm-54.228-51.688c0-31.06 25.269-56.329 56.329-56.329 11.003 0 21.273 3.18 29.956 8.658-2.458 2.654-4.543 5.579-6.232 8.739-6.917-4.235-15.036-6.687-23.724-6.687-25.154 0-45.619 20.464-45.619 45.619 0 18.368 10.916 34.229 26.599 41.453-3.835 1.819-7.314 4.032-10.345 6.594-16.161-9.911-26.964-27.74-26.964-48.047zm382.007 141.867h-70.691c-4.142 0-7.5 3.358-7.5 7.5s3.358 7.5 7.5 7.5h66.947c-6.081 20.753-15.641 40.42-28.409 58.208-21.193 29.525-50.081 52.434-83.541 66.249-.855.353-1.794.532-2.791.532h-142.051c-.997 0-1.936-.179-2.791-.532-33.46-13.815-62.348-36.724-83.541-66.25-12.768-17.788-22.328-37.455-28.409-58.208h268.586c4.142 0 7.5-3.358 7.5-7.5s-3.358-7.5-7.5-7.5h-272.33c-2.007-9.666-3.285-19.517-3.794-29.481-.042-.833.335-1.415.66-1.757.281-.295.893-.79 1.841-.79h381.607c.948 0 1.561.495 1.841.79.325.342.703.924.66 1.757-.509 9.965-1.787 19.816-3.794 29.482z"/><path d="m327.845 74.242c1.091 0 2.196-.144 3.292-.437l49.225-13.189h.001c6.046-1.621 9.985-7.513 9.164-13.705-1.585-11.954-6.938-22.787-15.478-31.327s-19.372-13.892-31.326-15.477c-6.187-.815-12.083 3.118-13.706 9.166l-13.189 49.224c-1.169 4.365.04 8.878 3.235 12.074 2.394 2.393 5.527 3.671 8.782 3.671zm15.08-58.917c7.795 1.47 14.852 5.2 20.518 10.865 5.666 5.666 9.395 12.722 10.865 20.518l-42.87 11.487z"/></g></g></svg>