<svg width="43" height="43" viewBox="0 0 43 43" fill="none" xmlns="http://www.w3.org/2000/svg">
<g clip-path="url(#clip0_1122_3122)">
<path d="M24.9696 6.13009L25.3899 6.56203L25.7368 6.06928C26.121 5.52363 26.5442 4.97773 27.0057 4.43354C28.9953 2.08763 30.9635 0.618548 31.0332 0.566834C31.1534 0.477734 31.3179 0.477723 31.4381 0.566798C31.507 0.617872 33.4756 2.08709 35.4657 4.43353C38.1466 7.59469 39.5171 10.7922 39.5171 13.6771C39.5171 16.9336 37.6132 19.7583 34.8514 21.0996L34.4831 21.2785L34.5858 21.6749C35.0257 23.3715 35.2472 25.0512 35.2472 26.6765C35.2472 35.3995 28.1237 42.5 19.3648 42.5C10.6059 42.5 3.48226 35.3994 3.48242 26.6765C3.48242 23.5352 4.30488 20.2355 5.94528 16.8663C7.24388 14.1992 9.05534 11.4834 11.3344 8.79619L10.9531 8.47278L11.3345 8.79619C15.202 4.23591 19.014 1.38966 19.1625 1.27944C19.2826 1.19033 19.4472 1.19033 19.5674 1.27944L19.5675 1.27957C19.6625 1.34994 22.053 3.13235 24.9696 6.13009ZM19.6766 2.22547L19.3649 1.97702L19.0533 2.22555C17.876 3.16437 14.8353 5.71372 11.829 9.26388C8.36772 13.3512 4.16203 19.734 4.16203 26.6765C4.16203 35.0291 10.9834 41.8203 19.3648 41.8203C27.7462 41.8203 34.5676 35.0291 34.5676 26.6764C34.5676 25.157 34.3664 23.5926 33.9715 22.0157L33.8484 21.5243L33.3587 21.6538C32.6814 21.8329 31.9699 21.9285 31.2358 21.9285C26.6681 21.9285 22.9543 18.2249 22.9543 13.6772C22.9543 11.722 23.5831 9.6229 24.827 7.48459L25.0165 7.15886L24.7556 6.88697C22.5464 4.58489 20.5735 2.94029 19.6766 2.22547ZM31.5545 1.52862L31.2357 1.26468L30.9168 1.52863C30.0545 2.24255 28.2463 3.84788 26.6497 5.97523C25.0597 8.09386 23.6339 10.7906 23.6339 13.6771C23.6339 17.8546 27.0456 21.2487 31.2357 21.2487C35.4257 21.2487 38.8374 17.8546 38.8375 13.6771C38.8375 10.7906 37.4118 8.09391 35.8218 5.97529C34.2252 3.84797 32.417 2.24263 31.5545 1.52862Z" stroke="black"/>
<path d="M34.8279 13.2915C33.6201 12.6304 32.6325 11.642 31.9718 10.4331C31.8245 10.1637 31.5419 9.99609 31.2348 9.99609C30.9278 9.99609 30.6452 10.1637 30.4979 10.4331C29.8371 11.6421 28.8495 12.6304 27.6417 13.2915C27.3725 13.4389 27.2051 13.7213 27.2051 14.0282C27.2051 14.3351 27.3725 14.6176 27.6416 14.7648C28.8496 15.426 29.8372 16.4144 30.4979 17.6233C30.6452 17.8927 30.9278 18.0604 31.2348 18.0604C31.5419 18.0604 31.8245 17.8927 31.9718 17.6233C32.6324 16.4143 33.6201 15.426 34.828 14.7648C35.0972 14.6175 35.2646 14.3351 35.2646 14.0282C35.2646 13.7213 35.0972 13.4389 34.8279 13.2915ZM31.2348 15.6835C30.759 15.0607 30.2031 14.5045 29.5806 14.0283C30.2032 13.5521 30.7589 12.996 31.2348 12.373C31.7108 12.996 32.2665 13.5521 32.8891 14.0283C32.2666 14.5045 31.7107 15.0607 31.2348 15.6835Z" fill="black"/>
<path d="M19.8127 26.9673C20.2785 26.4161 20.5597 25.7039 20.5597 24.9272C20.5597 23.1828 19.1413 21.7637 17.3979 21.7637H14.4668C14.003 21.7637 13.627 22.1398 13.627 22.6035V32.702C13.627 32.9254 13.716 33.1396 13.8742 33.2972C14.0317 33.454 14.2447 33.5419 14.4668 33.5419H14.4705C14.4975 33.5417 17.1763 33.5299 17.9099 33.5299C19.8707 33.5299 21.4659 31.9337 21.4659 29.9718C21.4658 28.7098 20.8056 27.5991 19.8127 26.9673V26.9673ZM17.3979 23.4434C18.2151 23.4434 18.88 24.109 18.88 24.9272C18.88 25.7454 18.2151 26.411 17.3979 26.411C17.1839 26.411 16.7794 26.4122 16.3376 26.4137H15.3066V23.4434H17.3979ZM17.9098 31.8503C17.4373 31.8503 16.1659 31.8551 15.3066 31.8587V28.0975C15.6265 28.0962 15.9983 28.0947 16.3462 28.0935H17.9098C18.9443 28.0935 19.7861 28.9361 19.7861 29.9719C19.7861 31.0077 18.9444 31.8503 17.9098 31.8503Z" fill="black"/>
</g>
<defs>
<clipPath id="clip0_1122_3122">
<rect width="43" height="43" fill="white"/>
</clipPath>
</defs>
</svg>
