<svg width="43" height="43" viewBox="0 0 43 43" fill="none" xmlns="http://www.w3.org/2000/svg">
<path d="M32.9345 20.5088L23.2323 3.70405C23.0569 3.40004 22.8045 3.14758 22.5005 2.97204C22.1966 2.79651 21.8518 2.7041 21.5008 2.7041C21.1498 2.7041 20.805 2.79651 20.501 2.97204C20.1971 3.14758 19.9447 3.40004 19.7693 3.70405L10.0671 20.5088C8.89508 22.5113 8.27734 24.7898 8.27734 27.1101C8.27734 29.4304 8.89508 31.7089 10.0671 33.7114C14.9287 42.464 28.0726 42.467 32.9345 33.7112C34.1065 31.7087 34.7242 29.4303 34.7242 27.11C34.7242 24.7897 34.1065 22.5113 32.9345 20.5088V20.5088ZM31.7705 33.0395C30.7393 34.8507 29.2445 36.3546 27.4396 37.3967C25.6347 38.4388 23.5849 38.9815 21.5008 38.969C12.5066 39.1167 6.60526 28.8956 11.2312 21.1806L20.9332 4.37592C20.9907 4.2762 21.0734 4.19337 21.173 4.13578C21.2726 4.07818 21.3857 4.04786 21.5008 4.04786C21.6159 4.04786 21.7289 4.07818 21.8286 4.13578C21.9282 4.19337 22.0109 4.2762 22.0683 4.37592L31.7705 21.1807C32.8233 22.9794 33.3782 25.0259 33.3782 27.1101C33.3782 29.1942 32.8233 31.2408 31.7705 33.0395V33.0395Z" fill="black"/>
<path d="M22.9986 18.689L22.9896 18.666C22.909 18.4687 22.7713 18.2999 22.5943 18.1812C22.4172 18.0626 22.2087 17.9995 21.9956 18V18C21.7822 17.9997 21.5736 18.0631 21.3965 18.1821C21.2194 18.3011 21.0819 18.4703 21.0016 18.668L20.9936 18.687L17.0556 29.038C16.976 29.2454 16.9821 29.4759 17.0725 29.6788C17.1629 29.8817 17.3302 30.0404 17.5376 30.12C17.745 30.1996 17.9755 30.1935 18.1784 30.1031C18.3813 30.0127 18.54 29.8454 18.6196 29.638L19.3946 27.6H24.5656L25.3326 29.635C25.4133 29.8394 25.5712 30.0039 25.7721 30.093C25.9731 30.182 26.201 30.1884 26.4066 30.1108C26.6123 30.0331 26.7791 29.8778 26.8712 29.6782C26.9632 29.4786 26.9731 29.2508 26.8986 29.044L22.9986 18.689ZM20.0326 25.918L21.9926 20.767L23.9356 25.918H20.0326Z" fill="black"/>
</svg>
