<svg xmlns="http://www.w3.org/2000/svg" width="73.3" height="83.254" viewBox="0 0 73.3 83.254">
  <g id="ic_06" transform="translate(-219.35 -18054.563)">
    <path id="Path_2253" data-name="Path 2253" d="M607.833,155.5v-2a2.166,2.166,0,0,0-.634-1.532Zm0,0h2m-2,0h2m0,0h8.334a6.341,6.341,0,0,1,6.333,6.333v62.5a6.342,6.342,0,0,1-6.333,6.334H559.833a6.342,6.342,0,0,1-6.333-6.334v-62.5a6.341,6.341,0,0,1,6.333-6.333h10.334m39.666,0H570.167m0,0v-2m0,2v-2m0,0a2.166,2.166,0,0,1,2.166-2.167h33.334a2.17,2.17,0,0,1,1.532.635Zm-10.334,6.333h-2v66.5h62.334v-66.5H607.833v8.334H570.167v-8.334H559.833Z" transform="translate(-333 17906)" fill="none" stroke="#38b245" stroke-width="2.3"/>
    <path id="Path_2277" data-name="Path 2277" d="M584.833,197.608l-7.47-7.471-5.892,5.892,13.362,13.363,21.7-21.7-5.892-5.892Z" transform="translate(-333 17906)" fill="#38b245"/>
  </g>
</svg>
