<svg xmlns="http://www.w3.org/2000/svg" width="73.819" height="100" viewBox="0 0 73.819 100">
  <g id="ic_05" transform="translate(-234.09 -18241)">
    <path id="Path_2257" data-name="Path 2257" d="M630.052,362.682H626.37v-5.313a22.37,22.37,0,0,0-44.74,0v5.313h-3.682a10.87,10.87,0,0,0-10.858,10.857v50.6A10.87,10.87,0,0,0,577.948,435h52.1a10.87,10.87,0,0,0,10.858-10.858v-50.6A10.87,10.87,0,0,0,630.052,362.682Zm-41.338-5.313a15.285,15.285,0,0,1,30.571,0v5.313H588.714Zm45.112,66.773a3.778,3.778,0,0,1-3.774,3.774h-52.1a3.779,3.779,0,0,1-3.775-3.774v-50.6a3.779,3.779,0,0,1,3.775-3.774h3.682v4.967a5.414,5.414,0,1,0,7.084,0v-4.967h30.571v4.967a5.414,5.414,0,1,0,7.084,0v-4.967h3.682a3.778,3.778,0,0,1,3.775,3.774v50.6Z" transform="translate(-333 17906)" fill="#38b245"/>
  </g>
</svg>
