<svg xmlns="http://www.w3.org/2000/svg" xmlns:xlink="http://www.w3.org/1999/xlink" width="100" height="100" viewBox="0 0 100 100">
  <defs>
    <clipPath id="clip-path">
      <rect id="Rectangle_582" data-name="Rectangle 582" width="100" height="100" transform="translate(310 335)" fill="#fff"/>
    </clipPath>
  </defs>
  <g id="ic_02" transform="translate(23 -18241)">
    <g id="Group_454" data-name="Group 454" transform="translate(-333 17906)" clip-path="url(#clip-path)">
      <path id="Path_2255" data-name="Path 2255" d="M369.237,346.025c-2.309-3.4-4.347-6.52-6.249-9.373a4.143,4.143,0,0,0-1.086-1.087,3.541,3.541,0,0,0-4.891,1.087c-1.766,2.853-3.8,5.841-6.248,9.373C340.031,361.782,324,385.554,324,399.138a35.836,35.836,0,0,0,10.6,25.4A36.29,36.29,0,0,0,360,435a36.177,36.177,0,0,0,36-36C396,385.418,379.968,361.782,369.237,346.025Zm11.275,73.489A28.731,28.731,0,0,1,360,427.936a29.3,29.3,0,0,1-20.512-8.422A28.729,28.729,0,0,1,331.066,399c0-11.41,15.35-34.1,25.538-49.173,1.222-1.766,2.309-3.532,3.4-5.027,1.087,1.495,2.173,3.261,3.4,5.027,10.188,15.214,25.538,37.763,25.538,49.173A29.306,29.306,0,0,1,380.512,419.514Z" fill="#38b245"/>
      <path id="Path_2256" data-name="Path 2256" d="M365.679,388.779c-1.994-3.211-3.959-5.829-4.042-5.939L359.5,380l-2.137,2.84c-.083.11-2.048,2.728-4.042,5.939-1.855,2.987-4.321,7.327-4.321,10.506a10.5,10.5,0,1,0,21,0C370,396.106,367.534,391.766,365.679,388.779Z" fill="#38b245"/>
    </g>
  </g>
</svg>
