<svg xmlns="http://www.w3.org/2000/svg" xmlns:xlink="http://www.w3.org/1999/xlink" width="90" height="90" viewBox="0 0 90 90">
  <defs>
    <clipPath id="clip-path">
      <rect id="Rectangle_587" data-name="Rectangle 587" width="90" height="90" transform="translate(124.027 141.027)" fill="#fff"/>
    </clipPath>
  </defs>
  <g id="ic_01" transform="translate(200 -18056)">
    <g id="Group_458" data-name="Group 458" transform="translate(-324.027 17914.973)" clip-path="url(#clip-path)">
      <path id="Path_2269" data-name="Path 2269" d="M207.56,164.187c-.047-2.431-.091-4.728-.091-6.95a3.153,3.153,0,0,0-3.152-3.153c-13.481,0-23.745-3.874-32.3-12.193a3.152,3.152,0,0,0-4.395,0c-8.554,8.318-18.817,12.193-32.3,12.193a3.153,3.153,0,0,0-3.153,3.153c0,2.223-.043,4.52-.09,6.951-.432,22.627-1.024,53.615,36.7,66.692a3.138,3.138,0,0,0,2.065,0C208.582,217.8,207.991,186.814,207.56,164.187Zm-37.74,60.371c-32.357-11.754-31.868-37.5-31.433-60.248.025-1.365.05-2.688.068-3.985,12.626-.533,22.722-4.36,31.364-11.888,8.643,7.529,18.741,11.355,31.368,11.888.017,1.3.042,2.619.068,3.982C201.69,187.054,202.179,212.8,169.82,224.558Z" transform="translate(-0.794 0)" fill="#38b245"/>
      <path id="Path_2270" data-name="Path 2270" d="M183.061,178.739l-15.214,15.213-6.493-6.492a3.152,3.152,0,0,0-4.457,4.458l8.721,8.722a3.154,3.154,0,0,0,4.457,0L187.517,183.2a3.152,3.152,0,0,0-4.457-4.458Z" transform="translate(-3.18 -3.661)" fill="#38b245"/>
    </g>
  </g>
</svg>
