<svg xmlns="http://www.w3.org/2000/svg" width="545.582" height="641.983" viewBox="0 0 545.582 641.983">
  <g id="black_logo" transform="translate(23833.799 22828.653)">
    <path id="Path_309" data-name="Path 309" d="M113.853,38.908q-53.7,0-53.711,54.36v34.838H97.489V93.268q0-17.419,16.231-17.559h.266q16.091,0,16.1,17.559v68.747q-11.089-8.322-28.906-8.322-41.036.133-41.036,54.493V251.6q0,54.382,53.711,54.508,53.563,0,53.563-54.508V93.268q0-54.36-53.563-54.36m-2.39,238.143a66.867,66.867,0,0,1,2.523-94.54,66.881,66.881,0,0,1-2.523,94.54" transform="translate(-23684.055 -22492.775)" fill="#231f20"/>
    <path id="Path_310" data-name="Path 310" d="M114.487,13.509h0A67.823,67.823,0,0,1,46.67,81.326a67.823,67.823,0,0,1,67.817-67.817" transform="translate(-23869.371 -22842.162)" fill="#43a736"/>
    <path id="Path_311" data-name="Path 311" d="M129.263,18.919q-53.7,0-53.711,54.36v34.838H112.9V73.279q0-17.419,16.231-17.559h.266q16.091,0,16.1,17.559v68.747q-11.089-8.322-28.906-8.322-41.036.133-41.036,54.493v43.411q0,54.382,53.711,54.508,53.563,0,53.563-54.508V73.279q0-54.36-53.563-54.36m-2.39,238.143a66.867,66.867,0,0,1,2.523-94.54,66.88,66.88,0,0,1-2.523,94.54" transform="translate(-23472.078 -22767.736)" fill="#231f20"/>
    <rect id="Rectangle_2137" data-name="Rectangle 2137" width="37.347" height="258.89" transform="translate(-23833.799 -22744.738)" fill="#231f20"/>
    <path id="Path_312" data-name="Path 312" d="M87.762,281.9H50.415V73.279q0-54.36,53.578-54.36,53.7,0,53.7,54.36V281.9H120.357V73.279q0-17.419-16.231-17.545h-.266q-16.091,0-16.1,17.545Z" transform="translate(-23817.859 -22767.736)" fill="#231f20"/>
    <path id="Path_313" data-name="Path 313" d="M59.653,73.279q0-54.36,53.578-54.36,53.7,0,53.7,54.36v34.838H129.58V73.279q0-17.419-16.231-17.545H113.1q-16.113,0-16.1,17.545V96.77q0,17.286,34.956,42.349,34.971,24.945,34.971,59.776v32.728q0,54.493-53.578,54.493-53.7-.133-53.7-54.493V196.785H97v34.838q0,17.552,16.349,17.545,16.246,0,16.231-17.545V202.067q0-18.747-34.956-43.81Q59.653,133.313,59.653,97.552Z" transform="translate(-23690.781 -22767.736)" fill="#231f20"/>
    <path id="Path_314" data-name="Path 314" d="M132.214,97.425h28.892V134.24H132.214V654.366H94.867V134.24H68.086V97.425H94.867V13.509h37.347Z" transform="translate(-23574.785 -22842.162)" fill="#231f20"/>
    <path id="Path_315" data-name="Path 315" d="M75.622,93.267q0-54.36,53.578-54.36,53.7,0,53.7,54.36v34.838H145.549V93.267q0-17.419-16.231-17.545h-.251q-16.113,0-16.1,17.545v23.491q0,17.286,34.956,42.349Q182.9,184.052,182.9,218.883v32.728q0,54.493-53.578,54.493-53.7-.133-53.7-54.493V216.773h37.347v34.838q0,17.552,16.349,17.545,16.246,0,16.231-17.545V222.055q0-18.747-34.956-43.81Q75.622,153.3,75.622,117.54Z" transform="translate(-23471.113 -22492.791)" fill="#231f20"/>
    <path id="Path_316" data-name="Path 316" d="M158.179,190.906V93.267q0-54.36-53.7-54.36-53.585,0-53.578,54.36V251.611q0,54.493,53.578,54.493,53.7-.133,53.7-54.493V216.773H120.833v34.838q0,17.552-16.349,17.545-16.246,0-16.231-17.545V190.906ZM81.007,157.322h0a66.874,66.874,0,0,1,47.071-82.027,66.874,66.874,0,0,1-47.071,82.027" transform="translate(-23811.115 -22492.791)" fill="#231f20"/>
  </g>
</svg>
