<svg xmlns="http://www.w3.org/2000/svg" xmlns:xlink="http://www.w3.org/1999/xlink" width="445.23" height="445.231" viewBox="0 0 445.23 445.231">
  <defs>
    <filter id="Path_345">
      <feOffset dy="3" input="SourceAlpha"/>
      <feGaussianBlur stdDeviation="3" result="blur"/>
      <feFlood flood-opacity="0.161" result="color"/>
      <feComposite operator="out" in="SourceGraphic" in2="blur"/>
      <feComposite operator="in" in="color"/>
      <feComposite operator="in" in2="SourceGraphic"/>
    </filter>
  </defs>
  <g id="black_logo_withbg" transform="translate(24498.802 23849.516)">
    <g data-type="innerShadowGroup">
      <path id="Path_345-2" data-name="Path 345" d="M473.585,222.616c0,122.945-99.671,222.616-222.615,222.616S28.354,345.56,28.354,222.616,128.025,0,250.969,0,473.585,99.671,473.585,222.616" transform="translate(-24527.154 -23849.516)" fill="#231f20"/>
      <g transform="matrix(1, 0, 0, 1, -24498.8, -23849.52)" filter="url(#Path_345)">
        <path id="Path_345-3" data-name="Path 345" d="M473.585,222.616c0,122.945-99.671,222.616-222.615,222.616S28.354,345.56,28.354,222.616,128.025,0,250.969,0,473.585,99.671,473.585,222.616" transform="translate(-28.35)" fill="#fff"/>
      </g>
    </g>
    <path id="Path_356" data-name="Path 356" d="M82.619,38.908q-22.471,0-22.477,22.749V76.236H75.771V61.657q0-7.29,6.793-7.348h.111q6.734,0,6.737,7.348V90.426q-4.641-3.483-12.1-3.483-17.173.056-17.173,22.8v18.167q0,22.758,22.477,22.811,22.415,0,22.415-22.811V61.657q0-22.749-22.415-22.749m-1,99.659A27.983,27.983,0,0,1,82.675,99a27.988,27.988,0,0,1-1.056,39.563" transform="translate(-24362.654 -23648.164)" fill="#fff"/>
    <path id="Path_357" data-name="Path 357" d="M75.05,13.509h0a28.383,28.383,0,0,1-28.38,28.38,28.383,28.383,0,0,1,28.38-28.38" transform="translate(-24432.371 -23779.609)" fill="#43a736"/>
    <path id="Path_346" data-name="Path 346" d="M98.029,18.919q-22.471,0-22.477,22.749V56.247H91.181V41.668q0-7.29,6.793-7.348h.111q6.734,0,6.737,7.348V70.437q-4.641-3.483-12.1-3.483-17.173.056-17.173,22.8v18.167q0,22.758,22.477,22.811,22.415,0,22.415-22.811V41.668q0-22.749-22.415-22.749m-1,99.659a27.983,27.983,0,0,1,1.056-39.563,27.988,27.988,0,0,1-1.056,39.563" transform="translate(-24282.906 -23751.613)" fill="#fff"/>
    <rect id="Rectangle_2138" data-name="Rectangle 2138" width="15.629" height="108.341" transform="translate(-24390.344 -23730.986)" fill="#fff"/>
    <path id="Path_358" data-name="Path 358" d="M66.044,128.97H50.415v-87.3q0-22.749,22.422-22.749,22.471,0,22.471,22.749v87.3H79.685v-87.3q0-7.29-6.792-7.342h-.111q-6.734,0-6.737,7.342Z" transform="translate(-24412.992 -23751.613)" fill="#fff"/>
    <path id="Path_359" data-name="Path 359" d="M59.653,41.668q0-22.749,22.421-22.749,22.471,0,22.471,22.749V56.247H88.916V41.668q0-7.29-6.793-7.342h-.1q-6.743,0-6.737,7.342V51.5q0,7.234,14.629,17.722,14.635,10.439,14.635,25.015v13.7q0,22.8-22.421,22.8-22.471-.056-22.471-22.8V93.353H75.282v14.579q0,7.345,6.842,7.342,6.8,0,6.793-7.342V95.563q0-7.845-14.629-18.334-14.635-10.439-14.635-25.4Z" transform="translate(-24365.178 -23751.613)" fill="#fff"/>
    <path id="Path_347" data-name="Path 347" d="M94.922,48.626h12.091V64.033H94.922V281.7H79.293V64.033H68.086V48.626H79.293V13.509H94.922Z" transform="translate(-24321.541 -23779.609)" fill="#fff"/>
    <path id="Path_348" data-name="Path 348" d="M75.622,61.656q0-22.749,22.421-22.749,22.471,0,22.471,22.749V76.235H104.885V61.656q0-7.29-6.793-7.342h-.1q-6.743,0-6.737,7.342v9.831q0,7.234,14.629,17.722,14.635,10.439,14.635,25.015v13.7q0,22.8-22.421,22.8-22.471-.056-22.471-22.8V113.341H91.251V127.92q0,7.345,6.842,7.342,6.8,0,6.793-7.342V115.551q0-7.845-14.629-18.334-14.635-10.439-14.635-25.4Z" transform="translate(-24282.539 -23648.168)" fill="#fff"/>
    <path id="Path_360" data-name="Path 360" d="M95.8,102.516V61.656q0-22.749-22.471-22.749-22.425,0-22.421,22.749V127.92q0,22.8,22.421,22.8,22.471-.056,22.471-22.8V113.341H80.168V127.92q0,7.345-6.842,7.342-6.8,0-6.793-7.342v-25.4ZM63.5,88.462h0A27.986,27.986,0,0,1,83.2,54.135,27.985,27.985,0,0,1,63.5,88.462" transform="translate(-24410.455 -23648.168)" fill="#fff"/>
  </g>
</svg>
