<svg xmlns="http://www.w3.org/2000/svg" xmlns:xlink="http://www.w3.org/1999/xlink" width="732.643" height="732.643" viewBox="0 0 732.643 732.643">
  <defs>
    <filter id="Path_345">
      <feOffset dy="3" input="SourceAlpha"/>
      <feGaussianBlur stdDeviation="3" result="blur"/>
      <feFlood flood-opacity="0.161" result="color"/>
      <feComposite operator="out" in="SourceGraphic" in2="blur"/>
      <feComposite operator="in" in="color"/>
      <feComposite operator="in" in2="SourceGraphic"/>
    </filter>
  </defs>
  <g id="logo_wth_bg" transform="translate(24498.801 23849.516)">
    <g data-type="innerShadowGroup">
      <path id="Path_345-2" data-name="Path 345" d="M761,366.321c0,202.309-164.011,366.321-366.321,366.321S28.354,568.63,28.354,366.321,192.366,0,394.675,0,761,164.012,761,366.321" transform="translate(-24527.154 -23849.516)" fill="#231f20"/>
      <g transform="matrix(1, 0, 0, 1, -24498.8, -23849.52)" filter="url(#Path_345)">
        <path id="Path_345-3" data-name="Path 345" d="M761,366.321c0,202.309-164.011,366.321-366.321,366.321S28.354,568.63,28.354,366.321,192.366,0,394.675,0,761,164.012,761,366.321" transform="translate(-28.35)" fill="#fff"/>
      </g>
    </g>
    <path id="Path_356" data-name="Path 356" d="M97.129,38.908q-36.977,0-36.987,37.434v23.991H85.86V76.342q0-12,11.177-12.092h.183q11.081,0,11.086,12.092v47.341q-7.636-5.731-19.906-5.731-28.258.091-28.258,37.525v29.894q0,37.449,36.987,37.535,36.885,0,36.885-37.535V76.342q0-37.434-36.885-37.434M95.483,202.9a46.046,46.046,0,0,1,1.738-65.1,46.056,46.056,0,0,1-1.738,65.1" transform="translate(-24235.945 -23493.07)" fill="#fff"/>
    <path id="Path_357" data-name="Path 357" d="M93.371,13.509h0a46.7,46.7,0,0,1-46.7,46.7,46.7,46.7,0,0,1,46.7-46.7" transform="translate(-24359.361 -23725.764)" fill="#43a736"/>
    <path id="Path_346" data-name="Path 346" d="M112.539,18.919q-36.977,0-36.987,37.434V80.343H101.27V56.353q0-12,11.177-12.092h.183q11.081,0,11.086,12.092v47.341q-7.636-5.731-19.906-5.731-28.258.091-28.258,37.525v29.894q0,37.449,36.987,37.535,36.885,0,36.885-37.535V56.353q0-37.434-36.885-37.434M110.893,182.91a46.046,46.046,0,0,1,1.738-65.1,46.056,46.056,0,0,1-1.738,65.1" transform="translate(-24094.768 -23676.201)" fill="#fff"/>
    <rect id="Rectangle_2138" data-name="Rectangle 2138" width="25.718" height="178.278" transform="translate(-24320.332 -23654.471)" fill="#fff"/>
    <path id="Path_358" data-name="Path 358" d="M76.133,200.012H50.415V56.353q0-37.434,36.9-37.434,36.976,0,36.976,37.434V200.012H98.579V56.353q0-12-11.177-12.082h-.183q-11.081,0-11.086,12.082Z" transform="translate(-24325.055 -23676.201)" fill="#fff"/>
    <path id="Path_359" data-name="Path 359" d="M59.653,56.353q0-37.434,36.9-37.434,36.976,0,36.976,37.434V80.343H107.807V56.353q0-12-11.177-12.082h-.173q-11.1,0-11.086,12.082V72.529q0,11.9,24.072,29.163,24.082,17.178,24.082,41.163v22.537q0,37.525-36.9,37.525-36.976-.091-36.977-37.525V141.4H85.371v23.991q0,12.087,11.259,12.082,11.188,0,11.177-12.082V145.04q0-12.91-24.072-30.169-24.082-17.177-24.082-41.8Z" transform="translate(-24240.412 -23676.201)" fill="#fff"/>
    <path id="Path_347" data-name="Path 347" d="M112.246,71.3h19.9V96.648h-19.9V454.819H86.528V96.648H68.086V71.3H86.528V13.509h25.718Z" transform="translate(-24163.164 -23725.764)" fill="#fff"/>
    <path id="Path_348" data-name="Path 348" d="M75.622,76.341q0-37.434,36.9-37.434,36.977,0,36.977,37.434v23.991H123.776V76.341q0-12-11.177-12.082h-.173q-11.1,0-11.086,12.082V92.517q0,11.9,24.072,29.163,24.082,17.177,24.082,41.163v22.537q0,37.525-36.9,37.525-36.976-.091-36.976-37.525V161.39H101.34v23.991q0,12.087,11.259,12.082,11.188,0,11.177-12.082V165.028q0-12.91-24.072-30.169-24.082-17.178-24.082-41.8Z" transform="translate(-24094.119 -23493.076)" fill="#fff"/>
    <path id="Path_360" data-name="Path 360" d="M124.777,143.577V76.341q0-37.434-36.976-37.434-36.9,0-36.9,37.434v109.04q0,37.525,36.9,37.525,36.976-.091,36.976-37.525V161.39H99.059v23.991q0,12.087-11.259,12.082-11.188,0-11.177-12.082v-41.8ZM71.634,120.451h0a46.051,46.051,0,0,1,32.414-56.486,46.051,46.051,0,0,1-32.414,56.486" transform="translate(-24320.564 -23493.076)" fill="#fff"/>
  </g>
</svg>
