<svg xmlns="http://www.w3.org/2000/svg" width="65.036" height="76.528" viewBox="0 0 65.036 76.528">
  <g id="logo" transform="translate(-317.29 -9.329)">
    <g id="Group_5126" data-name="Group 5126" transform="translate(317.29 9.329)">
      <path id="Path_309" data-name="Path 309" d="M66.545,38.908q-6.4,0-6.4,6.48v4.153h4.452V45.388q0-2.076,1.935-2.093h.032q1.918,0,1.919,2.093v8.195a5.592,5.592,0,0,0-3.446-.992q-4.892.016-4.892,6.5v5.175q0,6.483,6.4,6.5,6.385,0,6.385-6.5V45.388q0-6.48-6.385-6.48M66.26,67.3a7.971,7.971,0,0,1,.3-11.27,7.972,7.972,0,0,1-.3,11.27" transform="translate(-35.122 5.769)" fill="#fff"/>
      <path id="Path_310" data-name="Path 310" d="M54.754,13.509h0a8.085,8.085,0,0,1-8.084,8.084,8.085,8.085,0,0,1,8.084-8.084" transform="translate(-45.347 -13.509)" fill="#fff"/>
      <path id="Path_311" data-name="Path 311" d="M81.955,18.919q-6.4,0-6.4,6.48v4.153H80V25.4q0-2.076,1.935-2.093h.032q1.918,0,1.919,2.093v8.195a5.592,5.592,0,0,0-3.446-.992q-4.892.016-4.892,6.5v5.175q0,6.483,6.4,6.5,6.385,0,6.385-6.5V25.4q0-6.48-6.385-6.48M81.67,47.307a7.971,7.971,0,0,1,.3-11.27,7.972,7.972,0,0,1-.3,11.27" transform="translate(-23.427 -9.401)" fill="#fff"/>
      <rect id="Rectangle_2137" data-name="Rectangle 2137" width="4.452" height="30.861" transform="translate(0 10.003)" fill="#fff"/>
      <path id="Path_312" data-name="Path 312" d="M54.867,50.267H50.415V25.4q0-6.48,6.387-6.48t6.4,6.48V50.267h-4.45V25.4q0-2.076-1.935-2.091h-.032q-1.918,0-1.919,2.091Z" transform="translate(-42.505 -9.401)" fill="#fff"/>
      <path id="Path_313" data-name="Path 313" d="M59.653,25.4q0-6.48,6.387-6.48t6.4,6.48v4.153H67.989V25.4q0-2.076-1.935-2.091h-.03q-1.921,0-1.919,2.091v2.8q0,2.061,4.167,5.048t4.169,7.126v3.9q0,6.5-6.387,6.5-6.4-.016-6.4-6.5V40.121H64.1v4.153q0,2.092,1.949,2.091t1.935-2.091V40.751q0-2.235-4.167-5.222t-4.169-7.236Z" transform="translate(-35.494 -9.401)" fill="#fff"/>
      <path id="Path_314" data-name="Path 314" d="M75.73,23.512h3.444V27.9H75.73v62H71.278v-62H68.086V23.512h3.192v-10H75.73Z" transform="translate(-29.093 -13.509)" fill="#fff"/>
      <path id="Path_315" data-name="Path 315" d="M75.622,45.387q0-6.48,6.387-6.48t6.4,6.48V49.54H83.958V45.387q0-2.076-1.935-2.091h-.03q-1.921,0-1.919,2.091v2.8q0,2.061,4.167,5.048t4.169,7.126v3.9q0,6.5-6.387,6.5-6.4-.016-6.4-6.5V60.109h4.452v4.153q0,2.092,1.949,2.091t1.935-2.091V60.739q0-2.235-4.167-5.222T75.622,48.28Z" transform="translate(-23.374 5.767)" fill="#fff"/>
      <path id="Path_316" data-name="Path 316" d="M63.693,57.026V45.387q0-6.48-6.4-6.48t-6.387,6.48V64.262q0,6.5,6.387,6.5,6.4-.016,6.4-6.5V60.109H59.241v4.153q0,2.092-1.949,2.091t-1.935-2.091V57.026Zm-9.2-4h0A7.972,7.972,0,0,1,60.1,43.245a7.972,7.972,0,0,1-5.611,9.778" transform="translate(-42.132 5.767)" fill="#fff"/>
    </g>
  </g>
</svg>
