<svg xmlns="http://www.w3.org/2000/svg" width="445.23" height="445.229" viewBox="0 0 445.23 445.229">
  <g id="white_logo_withbg" transform="translate(24413.725 22306.734)">
    <path id="Path_345" data-name="Path 345" d="M473.583,222.615c0,122.944-99.67,222.615-222.615,222.615S28.354,345.559,28.354,222.615,128.024,0,250.969,0,473.583,99.671,473.583,222.615" transform="translate(-24442.078 -22306.734)" fill="#fff"/>
    <path id="Path_356" data-name="Path 356" d="M82.619,38.908q-22.471,0-22.477,22.749V76.236H75.771V61.657q0-7.29,6.792-7.348h.111q6.734,0,6.737,7.348V90.426q-4.641-3.483-12.1-3.483-17.173.056-17.173,22.8v18.167q0,22.758,22.477,22.81,22.415,0,22.415-22.81V61.657q0-22.749-22.415-22.749m-1,99.658A27.983,27.983,0,0,1,82.675,99a27.988,27.988,0,0,1-1.056,39.563" transform="translate(-24277.576 -22105.387)" fill="#1a1818"/>
    <path id="Path_357" data-name="Path 357" d="M75.05,13.509h0a28.383,28.383,0,0,1-28.38,28.38,28.383,28.383,0,0,1,28.38-28.38" transform="translate(-24347.293 -22236.828)" fill="#43a736"/>
    <path id="Path_346" data-name="Path 346" d="M98.029,18.919q-22.471,0-22.477,22.749V56.247H91.181V41.668q0-7.29,6.792-7.348h.111q6.734,0,6.737,7.348V70.437q-4.641-3.483-12.1-3.483-17.173.056-17.173,22.8v18.167q0,22.758,22.477,22.81,22.415,0,22.415-22.81V41.668q0-22.749-22.415-22.749m-1,99.658a27.983,27.983,0,0,1,1.056-39.563,27.988,27.988,0,0,1-1.056,39.563" transform="translate(-24197.83 -22208.828)" fill="#1a1818"/>
    <rect id="Rectangle_2138" data-name="Rectangle 2138" width="15.629" height="108.34" transform="translate(-24305.268 -22188.203)" fill="#1a1818"/>
    <path id="Path_358" data-name="Path 358" d="M66.044,128.97H50.415v-87.3q0-22.749,22.421-22.749,22.471,0,22.471,22.749v87.3H79.684v-87.3q0-7.29-6.792-7.342h-.111q-6.734,0-6.737,7.342Z" transform="translate(-24327.914 -22208.828)" fill="#1a1818"/>
    <path id="Path_359" data-name="Path 359" d="M59.653,41.668q0-22.749,22.421-22.749,22.471,0,22.471,22.749V56.247H88.916V41.668q0-7.29-6.792-7.342h-.1q-6.743,0-6.737,7.342V51.5q0,7.234,14.629,17.722,14.635,10.439,14.635,25.015v13.7q0,22.8-22.421,22.8-22.471-.056-22.471-22.8V93.352H75.282v14.579q0,7.345,6.842,7.342,6.8,0,6.792-7.342V95.563q0-7.845-14.629-18.334-14.635-10.439-14.635-25.4Z" transform="translate(-24280.107 -22208.828)" fill="#1a1818"/>
    <path id="Path_347" data-name="Path 347" d="M94.922,48.626h12.091V64.033H94.922V281.695H79.293V64.033H68.086V48.626H79.293V13.509H94.922Z" transform="translate(-24236.469 -22236.828)" fill="#1a1818"/>
    <path id="Path_348" data-name="Path 348" d="M75.622,61.656q0-22.749,22.421-22.749,22.471,0,22.471,22.749V76.235H104.885V61.656q0-7.29-6.792-7.342h-.1q-6.743,0-6.737,7.342v9.831q0,7.234,14.629,17.722,14.635,10.439,14.635,25.015v13.7q0,22.8-22.421,22.8-22.471-.056-22.471-22.8V113.34H91.251v14.579q0,7.345,6.842,7.342,6.8,0,6.792-7.342V115.551q0-7.845-14.629-18.334-14.635-10.439-14.635-25.4Z" transform="translate(-24197.467 -22105.391)" fill="#1a1818"/>
    <path id="Path_360" data-name="Path 360" d="M95.8,102.516V61.656q0-22.749-22.471-22.749-22.424,0-22.421,22.749v66.264q0,22.8,22.421,22.8,22.471-.056,22.471-22.8V113.34H80.168v14.579q0,7.345-6.842,7.342-6.8,0-6.792-7.342v-25.4ZM63.5,88.461h0A27.985,27.985,0,0,1,83.2,54.135,27.985,27.985,0,0,1,63.5,88.461" transform="translate(-24325.377 -22105.391)" fill="#1a1818"/>
  </g>
</svg>
